<svg width="237" height="499" viewBox="0 0 237 499" fill="none" xmlns="http://www.w3.org/2000/svg">
<path d="M196.5 417.5C196.5 461.116 160.921 496.5 117 496.5C73.0789 496.5 37.5 461.116 37.5 417.5C37.5 373.884 73.0789 338.5 117 338.5C160.921 338.5 196.5 373.884 196.5 417.5Z" fill="#FE8C19" stroke="white" stroke-width="5"/>
<line x1="115.5" y1="336" x2="115.5" y2="286" stroke="white" stroke-width="3"/>
<line x1="115.5" y1="126" x2="115.5" y2="72" stroke="white" stroke-width="3"/>
<path d="M33.2011 168.9H26.6511L25.6011 172H21.1261L27.4761 154.45H32.4261L38.7761 172H34.2511L33.2011 168.9ZM32.1011 165.6L29.9261 159.175L27.7761 165.6H32.1011ZM38.8587 165.025C38.8587 163.575 39.1504 162.308 39.7337 161.225C40.3337 160.142 41.1587 159.308 42.2087 158.725C43.2754 158.142 44.492 157.85 45.8587 157.85C47.6087 157.85 49.067 158.308 50.2337 159.225C51.417 160.142 52.192 161.433 52.5587 163.1H48.0087C47.6254 162.033 46.8837 161.5 45.7837 161.5C45.0004 161.5 44.3754 161.808 43.9087 162.425C43.442 163.025 43.2087 163.892 43.2087 165.025C43.2087 166.158 43.442 167.033 43.9087 167.65C44.3754 168.25 45.0004 168.55 45.7837 168.55C46.8837 168.55 47.6254 168.017 48.0087 166.95H52.5587C52.192 168.583 51.417 169.867 50.2337 170.8C49.0504 171.733 47.592 172.2 45.8587 172.2C44.492 172.2 43.2754 171.908 42.2087 171.325C41.1587 170.742 40.3337 169.908 39.7337 168.825C39.1504 167.742 38.8587 166.475 38.8587 165.025ZM67.6204 158.05V172H63.3454V170.1C62.9121 170.717 62.3204 171.217 61.5704 171.6C60.8371 171.967 60.0204 172.15 59.1204 172.15C58.0537 172.15 57.1121 171.917 56.2954 171.45C55.4787 170.967 54.8454 170.275 54.3954 169.375C53.9454 168.475 53.7204 167.417 53.7204 166.2V158.05H57.9704V165.625C57.9704 166.558 58.2121 167.283 58.6954 167.8C59.1787 168.317 59.8287 168.575 60.6454 168.575C61.4787 168.575 62.1371 168.317 62.6204 167.8C63.1037 167.283 63.3454 166.558 63.3454 165.625V158.05H67.6204ZM87.4911 157.9C89.2244 157.9 90.5994 158.425 91.6161 159.475C92.6494 160.525 93.1661 161.983 93.1661 163.85V172H88.9161V164.425C88.9161 163.525 88.6744 162.833 88.1911 162.35C87.7244 161.85 87.0744 161.6 86.2411 161.6C85.4078 161.6 84.7494 161.85 84.2661 162.35C83.7994 162.833 83.5661 163.525 83.5661 164.425V172H79.3161V164.425C79.3161 163.525 79.0744 162.833 78.5911 162.35C78.1244 161.85 77.4744 161.6 76.6411 161.6C75.8078 161.6 75.1494 161.85 74.6661 162.35C74.1994 162.833 73.9661 163.525 73.9661 164.425V172H69.6911V158.05H73.9661V159.8C74.3994 159.217 74.9661 158.758 75.6661 158.425C76.3661 158.075 77.1578 157.9 78.0411 157.9C79.0911 157.9 80.0244 158.125 80.8411 158.575C81.6744 159.025 82.3244 159.667 82.7911 160.5C83.2744 159.733 83.9328 159.108 84.7661 158.625C85.5994 158.142 86.5078 157.9 87.4911 157.9ZM108.931 158.05V172H104.656V170.1C104.223 170.717 103.631 171.217 102.881 171.6C102.148 171.967 101.331 172.15 100.431 172.15C99.3643 172.15 98.4226 171.917 97.606 171.45C96.7893 170.967 96.156 170.275 95.706 169.375C95.256 168.475 95.031 167.417 95.031 166.2V158.05H99.281V165.625C99.281 166.558 99.5226 167.283 100.006 167.8C100.489 168.317 101.139 168.575 101.956 168.575C102.789 168.575 103.448 168.317 103.931 167.8C104.414 167.283 104.656 166.558 104.656 165.625V158.05H108.931ZM115.277 153.5V172H111.002V153.5H115.277ZM130.525 164.8C130.525 165.2 130.5 165.617 130.45 166.05H120.775C120.841 166.917 121.116 167.583 121.6 168.05C122.1 168.5 122.708 168.725 123.425 168.725C124.491 168.725 125.233 168.275 125.65 167.375H130.2C129.966 168.292 129.541 169.117 128.925 169.85C128.325 170.583 127.566 171.158 126.65 171.575C125.733 171.992 124.708 172.2 123.575 172.2C122.208 172.2 120.991 171.908 119.925 171.325C118.858 170.742 118.025 169.908 117.425 168.825C116.825 167.742 116.525 166.475 116.525 165.025C116.525 163.575 116.816 162.308 117.4 161.225C118 160.142 118.833 159.308 119.9 158.725C120.966 158.142 122.191 157.85 123.575 157.85C124.925 157.85 126.125 158.133 127.175 158.7C128.225 159.267 129.041 160.075 129.625 161.125C130.225 162.175 130.525 163.4 130.525 164.8ZM126.15 163.675C126.15 162.942 125.9 162.358 125.4 161.925C124.9 161.492 124.275 161.275 123.525 161.275C122.808 161.275 122.2 161.483 121.7 161.9C121.216 162.317 120.916 162.908 120.8 163.675H126.15ZM140.353 160.025C140.769 159.375 141.344 158.85 142.078 158.45C142.811 158.05 143.669 157.85 144.653 157.85C145.803 157.85 146.844 158.142 147.778 158.725C148.711 159.308 149.444 160.142 149.978 161.225C150.528 162.308 150.803 163.567 150.803 165C150.803 166.433 150.528 167.7 149.978 168.8C149.444 169.883 148.711 170.725 147.778 171.325C146.844 171.908 145.803 172.2 144.653 172.2C143.686 172.2 142.828 172 142.078 171.6C141.344 171.2 140.769 170.683 140.353 170.05V178.65H136.078V158.05H140.353V160.025ZM146.453 165C146.453 163.933 146.153 163.1 145.553 162.5C144.969 161.883 144.244 161.575 143.378 161.575C142.528 161.575 141.803 161.883 141.203 162.5C140.619 163.117 140.328 163.958 140.328 165.025C140.328 166.092 140.619 166.933 141.203 167.55C141.803 168.167 142.528 168.475 143.378 168.475C144.228 168.475 144.953 168.167 145.553 167.55C146.153 166.917 146.453 166.067 146.453 165ZM158.396 172.2C157.029 172.2 155.796 171.908 154.696 171.325C153.612 170.742 152.754 169.908 152.121 168.825C151.504 167.742 151.196 166.475 151.196 165.025C151.196 163.592 151.512 162.333 152.146 161.25C152.779 160.15 153.646 159.308 154.746 158.725C155.846 158.142 157.079 157.85 158.446 157.85C159.812 157.85 161.046 158.142 162.146 158.725C163.246 159.308 164.112 160.15 164.746 161.25C165.379 162.333 165.696 163.592 165.696 165.025C165.696 166.458 165.371 167.725 164.721 168.825C164.087 169.908 163.212 170.742 162.096 171.325C160.996 171.908 159.762 172.2 158.396 172.2ZM158.396 168.5C159.212 168.5 159.904 168.2 160.471 167.6C161.054 167 161.346 166.142 161.346 165.025C161.346 163.908 161.062 163.05 160.496 162.45C159.946 161.85 159.262 161.55 158.446 161.55C157.612 161.55 156.921 161.85 156.371 162.45C155.821 163.033 155.546 163.892 155.546 165.025C155.546 166.142 155.812 167 156.346 167.6C156.896 168.2 157.579 168.5 158.396 168.5ZM175.464 157.9C177.097 157.9 178.397 158.433 179.364 159.5C180.347 160.55 180.839 162 180.839 163.85V172H176.589V164.425C176.589 163.492 176.347 162.767 175.864 162.25C175.38 161.733 174.73 161.475 173.914 161.475C173.097 161.475 172.447 161.733 171.964 162.25C171.48 162.767 171.239 163.492 171.239 164.425V172H166.964V158.05H171.239V159.9C171.672 159.283 172.255 158.8 172.989 158.45C173.722 158.083 174.547 157.9 175.464 157.9ZM190.584 168.375V172H188.409C186.859 172 185.651 171.625 184.784 170.875C183.918 170.108 183.484 168.867 183.484 167.15V161.6H181.784V158.05H183.484V154.65H187.759V158.05H190.559V161.6H187.759V167.2C187.759 167.617 187.859 167.917 188.059 168.1C188.259 168.283 188.593 168.375 189.059 168.375H190.584ZM198.316 172.2C196.949 172.2 195.716 171.908 194.616 171.325C193.532 170.742 192.674 169.908 192.041 168.825C191.424 167.742 191.116 166.475 191.116 165.025C191.116 163.592 191.432 162.333 192.066 161.25C192.699 160.15 193.566 159.308 194.666 158.725C195.766 158.142 196.999 157.85 198.366 157.85C199.732 157.85 200.966 158.142 202.066 158.725C203.166 159.308 204.032 160.15 204.666 161.25C205.299 162.333 205.616 163.592 205.616 165.025C205.616 166.458 205.291 167.725 204.641 168.825C204.007 169.908 203.132 170.742 202.016 171.325C200.916 171.908 199.682 172.2 198.316 172.2ZM198.316 168.5C199.132 168.5 199.824 168.2 200.391 167.6C200.974 167 201.266 166.142 201.266 165.025C201.266 163.908 200.982 163.05 200.416 162.45C199.866 161.85 199.182 161.55 198.366 161.55C197.532 161.55 196.841 161.85 196.291 162.45C195.741 163.033 195.466 163.892 195.466 165.025C195.466 166.142 195.732 167 196.266 167.6C196.816 168.2 197.499 168.5 198.316 168.5ZM212.558 172.2C211.342 172.2 210.258 171.992 209.308 171.575C208.358 171.158 207.608 170.592 207.058 169.875C206.508 169.142 206.2 168.325 206.133 167.425H210.358C210.408 167.908 210.633 168.3 211.033 168.6C211.433 168.9 211.925 169.05 212.508 169.05C213.042 169.05 213.45 168.95 213.733 168.75C214.033 168.533 214.183 168.258 214.183 167.925C214.183 167.525 213.975 167.233 213.558 167.05C213.142 166.85 212.467 166.633 211.533 166.4C210.533 166.167 209.7 165.925 209.033 165.675C208.367 165.408 207.792 165 207.308 164.45C206.825 163.883 206.583 163.125 206.583 162.175C206.583 161.375 206.8 160.65 207.233 160C207.683 159.333 208.333 158.808 209.183 158.425C210.05 158.042 211.075 157.85 212.258 157.85C214.008 157.85 215.383 158.283 216.383 159.15C217.4 160.017 217.983 161.167 218.133 162.6H214.183C214.117 162.117 213.9 161.733 213.533 161.45C213.183 161.167 212.717 161.025 212.133 161.025C211.633 161.025 211.25 161.125 210.983 161.325C210.717 161.508 210.583 161.767 210.583 162.1C210.583 162.5 210.792 162.8 211.208 163C211.642 163.2 212.308 163.4 213.208 163.6C214.242 163.867 215.083 164.133 215.733 164.4C216.383 164.65 216.95 165.067 217.433 165.65C217.933 166.217 218.192 166.983 218.208 167.95C218.208 168.767 217.975 169.5 217.508 170.15C217.058 170.783 216.4 171.283 215.533 171.65C214.683 172.017 213.692 172.2 212.558 172.2Z" fill="white"/>
<path d="M31.7048 198.725V194.75H38.6298V213H34.1798V198.725H31.7048ZM49.5521 201.375C50.0521 200.608 50.6771 200.008 51.4271 199.575C52.1771 199.125 53.0104 198.9 53.9271 198.9V203.425H52.7521C51.6854 203.425 50.8854 203.658 50.3521 204.125C49.8187 204.575 49.5521 205.375 49.5521 206.525V213H45.2771V199.05H49.5521V201.375ZM68.1204 205.8C68.1204 206.2 68.0954 206.617 68.0454 207.05H58.3704C58.4371 207.917 58.7121 208.583 59.1954 209.05C59.6954 209.5 60.3037 209.725 61.0204 209.725C62.0871 209.725 62.8287 209.275 63.2454 208.375H67.7954C67.5621 209.292 67.1371 210.117 66.5204 210.85C65.9204 211.583 65.1621 212.158 64.2454 212.575C63.3287 212.992 62.3037 213.2 61.1704 213.2C59.8037 213.2 58.5871 212.908 57.5204 212.325C56.4537 211.742 55.6204 210.908 55.0204 209.825C54.4204 208.742 54.1204 207.475 54.1204 206.025C54.1204 204.575 54.4121 203.308 54.9954 202.225C55.5954 201.142 56.4287 200.308 57.4954 199.725C58.5621 199.142 59.7871 198.85 61.1704 198.85C62.5204 198.85 63.7204 199.133 64.7704 199.7C65.8204 200.267 66.6371 201.075 67.2204 202.125C67.8204 203.175 68.1204 204.4 68.1204 205.8ZM63.7454 204.675C63.7454 203.942 63.4954 203.358 62.9954 202.925C62.4954 202.492 61.8704 202.275 61.1204 202.275C60.4037 202.275 59.7954 202.483 59.2954 202.9C58.8121 203.317 58.5121 203.908 58.3954 204.675H63.7454ZM68.5257 206C68.5257 204.567 68.7924 203.308 69.3257 202.225C69.8757 201.142 70.6174 200.308 71.5507 199.725C72.484 199.142 73.5257 198.85 74.6757 198.85C75.659 198.85 76.5174 199.05 77.2507 199.45C78.0007 199.85 78.5757 200.375 78.9757 201.025V199.05H83.2507V213H78.9757V211.025C78.559 211.675 77.9757 212.2 77.2257 212.6C76.4924 213 75.634 213.2 74.6507 213.2C73.5174 213.2 72.484 212.908 71.5507 212.325C70.6174 211.725 69.8757 210.883 69.3257 209.8C68.7924 208.7 68.5257 207.433 68.5257 206ZM78.9757 206.025C78.9757 204.958 78.6757 204.117 78.0757 203.5C77.4924 202.883 76.7757 202.575 75.9257 202.575C75.0757 202.575 74.3507 202.883 73.7507 203.5C73.1674 204.1 72.8757 204.933 72.8757 206C72.8757 207.067 73.1674 207.917 73.7507 208.55C74.3507 209.167 75.0757 209.475 75.9257 209.475C76.7757 209.475 77.4924 209.167 78.0757 208.55C78.6757 207.933 78.9757 207.092 78.9757 206.025ZM89.6185 194.5V213H85.3435V194.5H89.6185ZM114.462 199.175V202.95H100.462V199.175H114.462ZM114.462 205.55V209.325H100.462V205.55H114.462ZM120.142 198.725V194.75H127.067V213H122.617V198.725H120.142ZM137.99 201.025C138.406 200.375 138.981 199.85 139.715 199.45C140.448 199.05 141.306 198.85 142.29 198.85C143.44 198.85 144.481 199.142 145.415 199.725C146.348 200.308 147.081 201.142 147.615 202.225C148.165 203.308 148.44 204.567 148.44 206C148.44 207.433 148.165 208.7 147.615 209.8C147.081 210.883 146.348 211.725 145.415 212.325C144.481 212.908 143.44 213.2 142.29 213.2C141.323 213.2 140.465 213 139.715 212.6C138.981 212.2 138.406 211.683 137.99 211.05V219.65H133.715V199.05H137.99V201.025ZM144.09 206C144.09 204.933 143.79 204.1 143.19 203.5C142.606 202.883 141.881 202.575 141.015 202.575C140.165 202.575 139.44 202.883 138.84 203.5C138.256 204.117 137.965 204.958 137.965 206.025C137.965 207.092 138.256 207.933 138.84 208.55C139.44 209.167 140.165 209.475 141.015 209.475C141.865 209.475 142.59 209.167 143.19 208.55C143.79 207.917 144.09 207.067 144.09 206ZM156.032 213.2C154.666 213.2 153.432 212.908 152.332 212.325C151.249 211.742 150.391 210.908 149.757 209.825C149.141 208.742 148.832 207.475 148.832 206.025C148.832 204.592 149.149 203.333 149.782 202.25C150.416 201.15 151.282 200.308 152.382 199.725C153.482 199.142 154.716 198.85 156.082 198.85C157.449 198.85 158.682 199.142 159.782 199.725C160.882 200.308 161.749 201.15 162.382 202.25C163.016 203.333 163.332 204.592 163.332 206.025C163.332 207.458 163.007 208.725 162.357 209.825C161.724 210.908 160.849 211.742 159.732 212.325C158.632 212.908 157.399 213.2 156.032 213.2ZM156.032 209.5C156.849 209.5 157.541 209.2 158.107 208.6C158.691 208 158.982 207.142 158.982 206.025C158.982 204.908 158.699 204.05 158.132 203.45C157.582 202.85 156.899 202.55 156.082 202.55C155.249 202.55 154.557 202.85 154.007 203.45C153.457 204.033 153.182 204.892 153.182 206.025C153.182 207.142 153.449 208 153.982 208.6C154.532 209.2 155.216 209.5 156.032 209.5ZM173.1 198.9C174.734 198.9 176.034 199.433 177 200.5C177.984 201.55 178.475 203 178.475 204.85V213H174.225V205.425C174.225 204.492 173.984 203.767 173.5 203.25C173.017 202.733 172.367 202.475 171.55 202.475C170.734 202.475 170.084 202.733 169.6 203.25C169.117 203.767 168.875 204.492 168.875 205.425V213H164.6V199.05H168.875V200.9C169.309 200.283 169.892 199.8 170.625 199.45C171.359 199.083 172.184 198.9 173.1 198.9ZM188.221 209.375V213H186.046C184.496 213 183.288 212.625 182.421 211.875C181.554 211.108 181.121 209.867 181.121 208.15V202.6H179.421V199.05H181.121V195.65H185.396V199.05H188.196V202.6H185.396V208.2C185.396 208.617 185.496 208.917 185.696 209.1C185.896 209.283 186.229 209.375 186.696 209.375H188.221ZM195.952 213.2C194.586 213.2 193.352 212.908 192.252 212.325C191.169 211.742 190.311 210.908 189.677 209.825C189.061 208.742 188.752 207.475 188.752 206.025C188.752 204.592 189.069 203.333 189.702 202.25C190.336 201.15 191.202 200.308 192.302 199.725C193.402 199.142 194.636 198.85 196.002 198.85C197.369 198.85 198.602 199.142 199.702 199.725C200.802 200.308 201.669 201.15 202.302 202.25C202.936 203.333 203.252 204.592 203.252 206.025C203.252 207.458 202.927 208.725 202.277 209.825C201.644 210.908 200.769 211.742 199.652 212.325C198.552 212.908 197.319 213.2 195.952 213.2ZM195.952 209.5C196.769 209.5 197.461 209.2 198.027 208.6C198.611 208 198.902 207.142 198.902 206.025C198.902 204.908 198.619 204.05 198.052 203.45C197.502 202.85 196.819 202.55 196.002 202.55C195.169 202.55 194.477 202.85 193.927 203.45C193.377 204.033 193.102 204.892 193.102 206.025C193.102 207.142 193.369 208 193.902 208.6C194.452 209.2 195.136 209.5 195.952 209.5Z" fill="white"/>
<path d="M49.5965 223.95L50.1365 224.925L48.0515 225.795L50.1515 226.65L49.5815 227.655L47.7665 226.335L48.0065 228.6H46.8815L47.1065 226.335L45.2915 227.67L44.7065 226.65L46.7915 225.78L44.7065 224.94L45.2615 223.935L47.1215 225.27L46.8815 222.99H48.0215L47.7665 225.27L49.5965 223.95ZM54.1064 227.295C54.3764 226.825 54.7764 226.435 55.3064 226.125C55.8464 225.805 56.4714 225.645 57.1814 225.645C57.9114 225.645 58.5714 225.82 59.1614 226.17C59.7614 226.52 60.2314 227.015 60.5714 227.655C60.9114 228.285 61.0814 229.02 61.0814 229.86C61.0814 230.69 60.9114 231.43 60.5714 232.08C60.2314 232.73 59.7614 233.235 59.1614 233.595C58.5714 233.955 57.9114 234.135 57.1814 234.135C56.4814 234.135 55.8614 233.98 55.3214 233.67C54.7914 233.35 54.3864 232.955 54.1064 232.485V237.9H52.7414V225.78H54.1064V227.295ZM59.6864 229.86C59.6864 229.24 59.5614 228.7 59.3114 228.24C59.0614 227.78 58.7214 227.43 58.2914 227.19C57.8714 226.95 57.4064 226.83 56.8964 226.83C56.3964 226.83 55.9314 226.955 55.5014 227.205C55.0814 227.445 54.7414 227.8 54.4814 228.27C54.2314 228.73 54.1064 229.265 54.1064 229.875C54.1064 230.495 54.2314 231.04 54.4814 231.51C54.7414 231.97 55.0814 232.325 55.5014 232.575C55.9314 232.815 56.3964 232.935 56.8964 232.935C57.4064 232.935 57.8714 232.815 58.2914 232.575C58.7214 232.325 59.0614 231.97 59.3114 231.51C59.5614 231.04 59.6864 230.49 59.6864 229.86ZM62.8681 229.86C62.8681 229.02 63.0381 228.285 63.3781 227.655C63.7181 227.015 64.1831 226.52 64.7731 226.17C65.3731 225.82 66.0381 225.645 66.7681 225.645C67.4881 225.645 68.1131 225.8 68.6431 226.11C69.1731 226.42 69.5681 226.81 69.8281 227.28V225.78H71.2081V234H69.8281V232.47C69.5581 232.95 69.1531 233.35 68.6131 233.67C68.0831 233.98 67.4631 234.135 66.7531 234.135C66.0231 234.135 65.3631 233.955 64.7731 233.595C64.1831 233.235 63.7181 232.73 63.3781 232.08C63.0381 231.43 62.8681 230.69 62.8681 229.86ZM69.8281 229.875C69.8281 229.255 69.7031 228.715 69.4531 228.255C69.2031 227.795 68.8631 227.445 68.4331 227.205C68.0131 226.955 67.5481 226.83 67.0381 226.83C66.5281 226.83 66.0631 226.95 65.6431 227.19C65.2231 227.43 64.8881 227.78 64.6381 228.24C64.3881 228.7 64.2631 229.24 64.2631 229.86C64.2631 230.49 64.3881 231.04 64.6381 231.51C64.8881 231.97 65.2231 232.325 65.6431 232.575C66.0631 232.815 66.5281 232.935 67.0381 232.935C67.5481 232.935 68.0131 232.815 68.4331 232.575C68.8631 232.325 69.2031 231.97 69.4531 231.51C69.7031 231.04 69.8281 230.495 69.8281 229.875ZM75.3799 227.115C75.6199 226.645 75.9599 226.28 76.3999 226.02C76.8499 225.76 77.3949 225.63 78.0349 225.63V227.04H77.6749C76.1449 227.04 75.3799 227.87 75.3799 229.53V234H74.0149V225.78H75.3799V227.115ZM79.6006 229.86C79.6006 229.02 79.7706 228.285 80.1106 227.655C80.4506 227.015 80.9156 226.52 81.5056 226.17C82.1056 225.82 82.7706 225.645 83.5006 225.645C84.2206 225.645 84.8456 225.8 85.3756 226.11C85.9056 226.42 86.3006 226.81 86.5606 227.28V225.78H87.9406V234H86.5606V232.47C86.2906 232.95 85.8856 233.35 85.3456 233.67C84.8156 233.98 84.1956 234.135 83.4856 234.135C82.7556 234.135 82.0956 233.955 81.5056 233.595C80.9156 233.235 80.4506 232.73 80.1106 232.08C79.7706 231.43 79.6006 230.69 79.6006 229.86ZM86.5606 229.875C86.5606 229.255 86.4356 228.715 86.1856 228.255C85.9356 227.795 85.5956 227.445 85.1656 227.205C84.7456 226.955 84.2806 226.83 83.7706 226.83C83.2606 226.83 82.7956 226.95 82.3756 227.19C81.9556 227.43 81.6206 227.78 81.3706 228.24C81.1206 228.7 80.9956 229.24 80.9956 229.86C80.9956 230.49 81.1206 231.04 81.3706 231.51C81.6206 231.97 81.9556 232.325 82.3756 232.575C82.7956 232.815 83.2606 232.935 83.7706 232.935C84.2806 232.935 84.7456 232.815 85.1656 232.575C85.5956 232.325 85.9356 231.97 86.1856 231.51C86.4356 231.04 86.5606 230.495 86.5606 229.875ZM94.7363 229.86C94.7363 229.02 94.9063 228.285 95.2463 227.655C95.5863 227.015 96.0513 226.52 96.6413 226.17C97.2413 225.82 97.9063 225.645 98.6363 225.645C99.3563 225.645 99.9813 225.8 100.511 226.11C101.041 226.42 101.436 226.81 101.696 227.28V225.78H103.076V234H101.696V232.47C101.426 232.95 101.021 233.35 100.481 233.67C99.9513 233.98 99.3313 234.135 98.6213 234.135C97.8913 234.135 97.2313 233.955 96.6413 233.595C96.0513 233.235 95.5863 232.73 95.2463 232.08C94.9063 231.43 94.7363 230.69 94.7363 229.86ZM101.696 229.875C101.696 229.255 101.571 228.715 101.321 228.255C101.071 227.795 100.731 227.445 100.301 227.205C99.8813 226.955 99.4163 226.83 98.9063 226.83C98.3963 226.83 97.9313 226.95 97.5113 227.19C97.0913 227.43 96.7563 227.78 96.5063 228.24C96.2563 228.7 96.1313 229.24 96.1313 229.86C96.1313 230.49 96.2563 231.04 96.5063 231.51C96.7563 231.97 97.0913 232.325 97.5113 232.575C97.9313 232.815 98.3963 232.935 98.9063 232.935C99.4163 232.935 99.8813 232.815 100.301 232.575C100.731 232.325 101.071 231.97 101.321 231.51C101.571 231.04 101.696 230.495 101.696 229.875ZM107.248 227.115C107.488 226.645 107.828 226.28 108.268 226.02C108.718 225.76 109.263 225.63 109.903 225.63V227.04H109.543C108.013 227.04 107.248 227.87 107.248 229.53V234H105.883V225.78H107.248V227.115ZM111.469 229.86C111.469 229.02 111.639 228.285 111.979 227.655C112.319 227.015 112.784 226.52 113.374 226.17C113.974 225.82 114.644 225.645 115.384 225.645C116.094 225.645 116.714 225.805 117.244 226.125C117.784 226.435 118.179 226.82 118.429 227.28V225.78H119.809V237.9H118.429V232.485C118.169 232.945 117.769 233.335 117.229 233.655C116.689 233.975 116.059 234.135 115.339 234.135C114.619 234.135 113.964 233.955 113.374 233.595C112.784 233.235 112.319 232.73 111.979 232.08C111.639 231.43 111.469 230.69 111.469 229.86ZM118.429 229.875C118.429 229.255 118.304 228.715 118.054 228.255C117.804 227.795 117.464 227.445 117.034 227.205C116.614 226.955 116.149 226.83 115.639 226.83C115.129 226.83 114.664 226.95 114.244 227.19C113.824 227.43 113.489 227.78 113.239 228.24C112.989 228.7 112.864 229.24 112.864 229.86C112.864 230.49 112.989 231.04 113.239 231.51C113.489 231.97 113.824 232.325 114.244 232.575C114.664 232.815 115.129 232.935 115.639 232.935C116.149 232.935 116.614 232.815 117.034 232.575C117.464 232.325 117.804 231.97 118.054 231.51C118.304 231.04 118.429 230.495 118.429 229.875ZM129.905 225.78V234H128.54V232.785C128.28 233.205 127.915 233.535 127.445 233.775C126.985 234.005 126.475 234.12 125.915 234.12C125.275 234.12 124.7 233.99 124.19 233.73C123.68 233.46 123.275 233.06 122.975 232.53C122.685 232 122.54 231.355 122.54 230.595V225.78H123.89V230.415C123.89 231.225 124.095 231.85 124.505 232.29C124.915 232.72 125.475 232.935 126.185 232.935C126.915 232.935 127.49 232.71 127.91 232.26C128.33 231.81 128.54 231.155 128.54 230.295V225.78H129.905ZM133.415 224.445C133.155 224.445 132.935 224.355 132.755 224.175C132.575 223.995 132.485 223.775 132.485 223.515C132.485 223.255 132.575 223.035 132.755 222.855C132.935 222.675 133.155 222.585 133.415 222.585C133.665 222.585 133.875 222.675 134.045 222.855C134.225 223.035 134.315 223.255 134.315 223.515C134.315 223.775 134.225 223.995 134.045 224.175C133.875 224.355 133.665 224.445 133.415 224.445ZM134.075 225.78V234H132.71V225.78H134.075ZM138.567 226.905V231.75C138.567 232.15 138.652 232.435 138.822 232.605C138.992 232.765 139.287 232.845 139.707 232.845H140.712V234H139.482C138.722 234 138.152 233.825 137.772 233.475C137.392 233.125 137.202 232.55 137.202 231.75V226.905H136.137V225.78H137.202V223.71H138.567V225.78H140.712V226.905H138.567ZM150.365 229.575C150.365 229.835 150.35 230.11 150.32 230.4H143.75C143.8 231.21 144.075 231.845 144.575 232.305C145.085 232.755 145.7 232.98 146.42 232.98C147.01 232.98 147.5 232.845 147.89 232.575C148.29 232.295 148.57 231.925 148.73 231.465H150.2C149.98 232.255 149.54 232.9 148.88 233.4C148.22 233.89 147.4 234.135 146.42 234.135C145.64 234.135 144.94 233.96 144.32 233.61C143.71 233.26 143.23 232.765 142.88 232.125C142.53 231.475 142.355 230.725 142.355 229.875C142.355 229.025 142.525 228.28 142.865 227.64C143.205 227 143.68 226.51 144.29 226.17C144.91 225.82 145.62 225.645 146.42 225.645C147.2 225.645 147.89 225.815 148.49 226.155C149.09 226.495 149.55 226.965 149.87 227.565C150.2 228.155 150.365 228.825 150.365 229.575ZM148.955 229.29C148.955 228.77 148.84 228.325 148.61 227.955C148.38 227.575 148.065 227.29 147.665 227.1C147.275 226.9 146.84 226.8 146.36 226.8C145.67 226.8 145.08 227.02 144.59 227.46C144.11 227.9 143.835 228.51 143.765 229.29H148.955ZM154.332 226.905V231.75C154.332 232.15 154.417 232.435 154.587 232.605C154.757 232.765 155.052 232.845 155.472 232.845H156.477V234H155.247C154.487 234 153.917 233.825 153.537 233.475C153.157 233.125 152.967 232.55 152.967 231.75V226.905H151.902V225.78H152.967V223.71H154.332V225.78H156.477V226.905H154.332ZM162.216 234.135C161.446 234.135 160.746 233.96 160.116 233.61C159.496 233.26 159.006 232.765 158.646 232.125C158.296 231.475 158.121 230.725 158.121 229.875C158.121 229.035 158.301 228.295 158.661 227.655C159.031 227.005 159.531 226.51 160.161 226.17C160.791 225.82 161.496 225.645 162.276 225.645C163.056 225.645 163.761 225.82 164.391 226.17C165.021 226.51 165.516 227 165.876 227.64C166.246 228.28 166.431 229.025 166.431 229.875C166.431 230.725 166.241 231.475 165.861 232.125C165.491 232.765 164.986 233.26 164.346 233.61C163.706 233.96 162.996 234.135 162.216 234.135ZM162.216 232.935C162.706 232.935 163.166 232.82 163.596 232.59C164.026 232.36 164.371 232.015 164.631 231.555C164.901 231.095 165.036 230.535 165.036 229.875C165.036 229.215 164.906 228.655 164.646 228.195C164.386 227.735 164.046 227.395 163.626 227.175C163.206 226.945 162.751 226.83 162.261 226.83C161.761 226.83 161.301 226.945 160.881 227.175C160.471 227.395 160.141 227.735 159.891 228.195C159.641 228.655 159.516 229.215 159.516 229.875C159.516 230.545 159.636 231.11 159.876 231.57C160.126 232.03 160.456 232.375 160.866 232.605C161.276 232.825 161.726 232.935 162.216 232.935ZM171.636 234.135C171.006 234.135 170.441 234.03 169.941 233.82C169.441 233.6 169.046 233.3 168.756 232.92C168.466 232.53 168.306 232.085 168.276 231.585H169.686C169.726 231.995 169.916 232.33 170.256 232.59C170.606 232.85 171.061 232.98 171.621 232.98C172.141 232.98 172.551 232.865 172.851 232.635C173.151 232.405 173.301 232.115 173.301 231.765C173.301 231.405 173.141 231.14 172.821 230.97C172.501 230.79 172.006 230.615 171.336 230.445C170.726 230.285 170.226 230.125 169.836 229.965C169.456 229.795 169.126 229.55 168.846 229.23C168.576 228.9 168.441 228.47 168.441 227.94C168.441 227.52 168.566 227.135 168.816 226.785C169.066 226.435 169.421 226.16 169.881 225.96C170.341 225.75 170.866 225.645 171.456 225.645C172.366 225.645 173.101 225.875 173.661 226.335C174.221 226.795 174.521 227.425 174.561 228.225H173.196C173.166 227.795 172.991 227.45 172.671 227.19C172.361 226.93 171.941 226.8 171.411 226.8C170.921 226.8 170.531 226.905 170.241 227.115C169.951 227.325 169.806 227.6 169.806 227.94C169.806 228.21 169.891 228.435 170.061 228.615C170.241 228.785 170.461 228.925 170.721 229.035C170.991 229.135 171.361 229.25 171.831 229.38C172.421 229.54 172.901 229.7 173.271 229.86C173.641 230.01 173.956 230.24 174.216 230.55C174.486 230.86 174.626 231.265 174.636 231.765C174.636 232.215 174.511 232.62 174.261 232.98C174.011 233.34 173.656 233.625 173.196 233.835C172.746 234.035 172.226 234.135 171.636 234.135ZM189.062 229.575C189.062 229.835 189.047 230.11 189.017 230.4H182.447C182.497 231.21 182.772 231.845 183.272 232.305C183.782 232.755 184.397 232.98 185.117 232.98C185.707 232.98 186.197 232.845 186.587 232.575C186.987 232.295 187.267 231.925 187.427 231.465H188.897C188.677 232.255 188.237 232.9 187.577 233.4C186.917 233.89 186.097 234.135 185.117 234.135C184.337 234.135 183.637 233.96 183.017 233.61C182.407 233.26 181.927 232.765 181.577 232.125C181.227 231.475 181.052 230.725 181.052 229.875C181.052 229.025 181.222 228.28 181.562 227.64C181.902 227 182.377 226.51 182.987 226.17C183.607 225.82 184.317 225.645 185.117 225.645C185.897 225.645 186.587 225.815 187.187 226.155C187.787 226.495 188.247 226.965 188.567 227.565C188.897 228.155 189.062 228.825 189.062 229.575ZM187.652 229.29C187.652 228.77 187.537 228.325 187.307 227.955C187.077 227.575 186.762 227.29 186.362 227.1C185.972 226.9 185.537 226.8 185.057 226.8C184.367 226.8 183.777 227.02 183.287 227.46C182.807 227.9 182.532 228.51 182.462 229.29H187.652ZM76.3825 244.575C76.3825 244.835 76.3675 245.11 76.3375 245.4H69.7675C69.8175 246.21 70.0925 246.845 70.5925 247.305C71.1025 247.755 71.7175 247.98 72.4375 247.98C73.0275 247.98 73.5175 247.845 73.9075 247.575C74.3075 247.295 74.5875 246.925 74.7475 246.465H76.2175C75.9975 247.255 75.5575 247.9 74.8975 248.4C74.2375 248.89 73.4175 249.135 72.4375 249.135C71.6575 249.135 70.9575 248.96 70.3375 248.61C69.7275 248.26 69.2475 247.765 68.8975 247.125C68.5475 246.475 68.3725 245.725 68.3725 244.875C68.3725 244.025 68.5425 243.28 68.8825 242.64C69.2225 242 69.6975 241.51 70.3075 241.17C70.9275 240.82 71.6375 240.645 72.4375 240.645C73.2175 240.645 73.9075 240.815 74.5075 241.155C75.1075 241.495 75.5675 241.965 75.8875 242.565C76.2175 243.155 76.3825 243.825 76.3825 244.575ZM74.9725 244.29C74.9725 243.77 74.8575 243.325 74.6275 242.955C74.3975 242.575 74.0825 242.29 73.6825 242.1C73.2925 241.9 72.8575 241.8 72.3775 241.8C71.6875 241.8 71.0975 242.02 70.6075 242.46C70.1275 242.9 69.8525 243.51 69.7825 244.29H74.9725ZM82.6893 240.63C83.6893 240.63 84.4993 240.935 85.1193 241.545C85.7393 242.145 86.0493 243.015 86.0493 244.155V249H84.6993V244.35C84.6993 243.53 84.4943 242.905 84.0843 242.475C83.6743 242.035 83.1143 241.815 82.4043 241.815C81.6843 241.815 81.1093 242.04 80.6793 242.49C80.2593 242.94 80.0493 243.595 80.0493 244.455V249H78.6843V240.78H80.0493V241.95C80.3193 241.53 80.6843 241.205 81.1443 240.975C81.6143 240.745 82.1293 240.63 82.6893 240.63ZM92.169 240.645C92.879 240.645 93.499 240.8 94.029 241.11C94.569 241.42 94.969 241.81 95.229 242.28V240.78H96.609V249.18C96.609 249.93 96.449 250.595 96.129 251.175C95.809 251.765 95.349 252.225 94.749 252.555C94.159 252.885 93.469 253.05 92.679 253.05C91.599 253.05 90.699 252.795 89.979 252.285C89.259 251.775 88.834 251.08 88.704 250.2H90.054C90.204 250.7 90.514 251.1 90.984 251.4C91.454 251.71 92.019 251.865 92.679 251.865C93.429 251.865 94.039 251.63 94.509 251.16C94.989 250.69 95.229 250.03 95.229 249.18V247.455C94.959 247.935 94.559 248.335 94.029 248.655C93.499 248.975 92.879 249.135 92.169 249.135C91.439 249.135 90.774 248.955 90.174 248.595C89.584 248.235 89.119 247.73 88.779 247.08C88.439 246.43 88.269 245.69 88.269 244.86C88.269 244.02 88.439 243.285 88.779 242.655C89.119 242.015 89.584 241.52 90.174 241.17C90.774 240.82 91.439 240.645 92.169 240.645ZM95.229 244.875C95.229 244.255 95.104 243.715 94.854 243.255C94.604 242.795 94.264 242.445 93.834 242.205C93.414 241.955 92.949 241.83 92.439 241.83C91.929 241.83 91.464 241.95 91.044 242.19C90.624 242.43 90.289 242.78 90.039 243.24C89.789 243.7 89.664 244.24 89.664 244.86C89.664 245.49 89.789 246.04 90.039 246.51C90.289 246.97 90.624 247.325 91.044 247.575C91.464 247.815 91.929 247.935 92.439 247.935C92.949 247.935 93.414 247.815 93.834 247.575C94.264 247.325 94.604 246.97 94.854 246.51C95.104 246.04 95.229 245.495 95.229 244.875ZM106.916 244.575C106.916 244.835 106.901 245.11 106.871 245.4H100.301C100.351 246.21 100.626 246.845 101.126 247.305C101.636 247.755 102.251 247.98 102.971 247.98C103.561 247.98 104.051 247.845 104.441 247.575C104.841 247.295 105.121 246.925 105.281 246.465H106.751C106.531 247.255 106.091 247.9 105.431 248.4C104.771 248.89 103.951 249.135 102.971 249.135C102.191 249.135 101.491 248.96 100.871 248.61C100.261 248.26 99.7807 247.765 99.4307 247.125C99.0807 246.475 98.9057 245.725 98.9057 244.875C98.9057 244.025 99.0757 243.28 99.4157 242.64C99.7557 242 100.231 241.51 100.841 241.17C101.461 240.82 102.171 240.645 102.971 240.645C103.751 240.645 104.441 240.815 105.041 241.155C105.641 241.495 106.101 241.965 106.421 242.565C106.751 243.155 106.916 243.825 106.916 244.575ZM105.506 244.29C105.506 243.77 105.391 243.325 105.161 242.955C104.931 242.575 104.616 242.29 104.216 242.1C103.826 241.9 103.391 241.8 102.911 241.8C102.221 241.8 101.631 242.02 101.141 242.46C100.661 242.9 100.386 243.51 100.316 244.29H105.506ZM113.223 240.63C114.223 240.63 115.033 240.935 115.653 241.545C116.273 242.145 116.583 243.015 116.583 244.155V249H115.233V244.35C115.233 243.53 115.028 242.905 114.618 242.475C114.208 242.035 113.648 241.815 112.938 241.815C112.218 241.815 111.643 242.04 111.213 242.49C110.793 242.94 110.583 243.595 110.583 244.455V249H109.218V240.78H110.583V241.95C110.853 241.53 111.218 241.205 111.678 240.975C112.148 240.745 112.663 240.63 113.223 240.63ZM123.392 240.63C124.012 240.63 124.572 240.765 125.072 241.035C125.572 241.295 125.962 241.69 126.242 242.22C126.532 242.75 126.677 243.395 126.677 244.155V249H125.327V244.35C125.327 243.53 125.122 242.905 124.712 242.475C124.302 242.035 123.742 241.815 123.032 241.815C122.312 241.815 121.737 242.04 121.307 242.49C120.887 242.94 120.677 243.595 120.677 244.455V249H119.312V237.9H120.677V241.95C120.947 241.53 121.317 241.205 121.787 240.975C122.267 240.745 122.802 240.63 123.392 240.63ZM136.907 244.575C136.907 244.835 136.892 245.11 136.862 245.4H130.292C130.342 246.21 130.617 246.845 131.117 247.305C131.627 247.755 132.242 247.98 132.962 247.98C133.552 247.98 134.042 247.845 134.432 247.575C134.832 247.295 135.112 246.925 135.272 246.465H136.742C136.522 247.255 136.082 247.9 135.422 248.4C134.762 248.89 133.942 249.135 132.962 249.135C132.182 249.135 131.482 248.96 130.862 248.61C130.252 248.26 129.772 247.765 129.422 247.125C129.072 246.475 128.897 245.725 128.897 244.875C128.897 244.025 129.067 243.28 129.407 242.64C129.747 242 130.222 241.51 130.832 241.17C131.452 240.82 132.162 240.645 132.962 240.645C133.742 240.645 134.432 240.815 135.032 241.155C135.632 241.495 136.092 241.965 136.412 242.565C136.742 243.155 136.907 243.825 136.907 244.575ZM135.497 244.29C135.497 243.77 135.382 243.325 135.152 242.955C134.922 242.575 134.607 242.29 134.207 242.1C133.817 241.9 133.382 241.8 132.902 241.8C132.212 241.8 131.622 242.02 131.132 242.46C130.652 242.9 130.377 243.51 130.307 244.29H135.497ZM139.914 239.445C139.654 239.445 139.434 239.355 139.254 239.175C139.074 238.995 138.984 238.775 138.984 238.515C138.984 238.255 139.074 238.035 139.254 237.855C139.434 237.675 139.654 237.585 139.914 237.585C140.164 237.585 140.374 237.675 140.544 237.855C140.724 238.035 140.814 238.255 140.814 238.515C140.814 238.775 140.724 238.995 140.544 239.175C140.374 239.355 140.164 239.445 139.914 239.445ZM140.574 240.78V249H139.209V240.78H140.574ZM144.765 242.115C145.005 241.645 145.345 241.28 145.785 241.02C146.235 240.76 146.78 240.63 147.42 240.63V242.04H147.06C145.53 242.04 144.765 242.87 144.765 244.53V249H143.4V240.78H144.765V242.115ZM153.081 249.135C152.311 249.135 151.611 248.96 150.981 248.61C150.361 248.26 149.871 247.765 149.511 247.125C149.161 246.475 148.986 245.725 148.986 244.875C148.986 244.035 149.166 243.295 149.526 242.655C149.896 242.005 150.396 241.51 151.026 241.17C151.656 240.82 152.361 240.645 153.141 240.645C153.921 240.645 154.626 240.82 155.256 241.17C155.886 241.51 156.381 242 156.741 242.64C157.111 243.28 157.296 244.025 157.296 244.875C157.296 245.725 157.106 246.475 156.726 247.125C156.356 247.765 155.851 248.26 155.211 248.61C154.571 248.96 153.861 249.135 153.081 249.135ZM153.081 247.935C153.571 247.935 154.031 247.82 154.461 247.59C154.891 247.36 155.236 247.015 155.496 246.555C155.766 246.095 155.901 245.535 155.901 244.875C155.901 244.215 155.771 243.655 155.511 243.195C155.251 242.735 154.911 242.395 154.491 242.175C154.071 241.945 153.616 241.83 153.126 241.83C152.626 241.83 152.166 241.945 151.746 242.175C151.336 242.395 151.006 242.735 150.756 243.195C150.506 243.655 150.381 244.215 150.381 244.875C150.381 245.545 150.501 246.11 150.741 246.57C150.991 247.03 151.321 247.375 151.731 247.605C152.141 247.825 152.591 247.935 153.081 247.935ZM162.501 249.135C161.871 249.135 161.306 249.03 160.806 248.82C160.306 248.6 159.911 248.3 159.621 247.92C159.331 247.53 159.171 247.085 159.141 246.585H160.551C160.591 246.995 160.781 247.33 161.121 247.59C161.471 247.85 161.926 247.98 162.486 247.98C163.006 247.98 163.416 247.865 163.716 247.635C164.016 247.405 164.166 247.115 164.166 246.765C164.166 246.405 164.006 246.14 163.686 245.97C163.366 245.79 162.871 245.615 162.201 245.445C161.591 245.285 161.091 245.125 160.701 244.965C160.321 244.795 159.991 244.55 159.711 244.23C159.441 243.9 159.306 243.47 159.306 242.94C159.306 242.52 159.431 242.135 159.681 241.785C159.931 241.435 160.286 241.16 160.746 240.96C161.206 240.75 161.731 240.645 162.321 240.645C163.231 240.645 163.966 240.875 164.526 241.335C165.086 241.795 165.386 242.425 165.426 243.225H164.061C164.031 242.795 163.856 242.45 163.536 242.19C163.226 241.93 162.806 241.8 162.276 241.8C161.786 241.8 161.396 241.905 161.106 242.115C160.816 242.325 160.671 242.6 160.671 242.94C160.671 243.21 160.756 243.435 160.926 243.615C161.106 243.785 161.326 243.925 161.586 244.035C161.856 244.135 162.226 244.25 162.696 244.38C163.286 244.54 163.766 244.7 164.136 244.86C164.506 245.01 164.821 245.24 165.081 245.55C165.351 245.86 165.491 246.265 165.501 246.765C165.501 247.215 165.376 247.62 165.126 247.98C164.876 248.34 164.521 248.625 164.061 248.835C163.611 249.035 163.091 249.135 162.501 249.135Z" fill="white"/>
<path d="M123.472 36.25H110.522L104.722 32.9V25.75H111.722V30.25H122.272V20.9H113.522V14.9H122.272V6.75H111.722V11.25H104.722V4.1L110.522 0.749998H123.472L129.272 4.1V15.35L124.922 17.85V17.95L129.272 20.45V32.9L123.472 36.25Z" fill="white"/>
<line x1="83" y1="455" x2="83" y2="424" stroke="white" stroke-width="10"/>
<line x1="105.001" y1="455.104" x2="104.001" y2="407.104" stroke="white" stroke-width="10"/>
<line x1="127" y1="457" x2="127" y2="390" stroke="white" stroke-width="10"/>
<line x1="148" y1="457" x2="148" y2="374" stroke="white" stroke-width="10"/>
</svg>
