<svg width="235" height="487" viewBox="0 0 235 487" fill="none" xmlns="http://www.w3.org/2000/svg">
<circle cx="116.5" cy="405.5" r="79" fill="#FE8C19" stroke="white" stroke-width="5"/>
<path d="M148.049 380.967C147.683 380.519 147.23 380.16 146.722 379.914C146.214 379.668 145.662 379.54 145.103 379.541H91.2635L90.5038 374.728C90.3525 373.763 89.8835 372.885 89.18 372.252C88.4766 371.62 87.5845 371.272 86.6622 371.271H77.8961C76.8628 371.271 75.8718 371.707 75.1411 372.482C74.4105 373.258 74 374.309 74 375.406C74 376.503 74.4105 377.554 75.1411 378.33C75.8718 379.105 76.8628 379.541 77.8961 379.541H83.3623L90.6089 425.699L90.7843 426.212L90.9947 426.836L91.4622 427.576L91.8323 428.039L92.5843 428.577L93.0206 428.845C93.4746 429.043 93.9597 429.148 94.4505 429.155H137.311C138.344 429.155 139.335 428.72 140.066 427.944C140.797 427.169 141.207 426.117 141.207 425.021C141.207 423.924 140.797 422.873 140.066 422.097C139.335 421.322 138.344 420.886 137.311 420.886H97.7543L97.1076 416.752H141.207C142.145 416.752 143.051 416.393 143.759 415.742C144.468 415.09 144.931 414.189 145.064 413.204L148.96 384.262C149.04 383.676 149 383.078 148.842 382.509C148.685 381.941 148.414 381.415 148.049 380.967ZM140.611 387.81L139.501 396.079H125.623V387.81H140.611ZM121.727 387.81V396.079H110.039V387.81H121.727ZM121.727 400.213V408.483H110.039V400.213H121.727ZM106.143 387.81V396.079H94.4544L93.8778 396.203L92.5609 387.81H106.143ZM94.5089 400.213H106.143V408.483H95.8063L94.5089 400.213ZM125.623 408.483V400.213H138.94L137.829 408.483H125.623Z" fill="white"/>
<path d="M100.298 445.693C103.526 445.693 106.142 442.917 106.142 439.492C106.142 436.066 103.526 433.29 100.298 433.29C97.0706 433.29 94.4541 436.066 94.4541 439.492C94.4541 442.917 97.0706 445.693 100.298 445.693Z" fill="white"/>
<path d="M135.364 445.693C138.591 445.693 141.208 442.917 141.208 439.492C141.208 436.066 138.591 433.29 135.364 433.29C132.136 433.29 129.52 436.066 129.52 439.492C129.52 442.917 132.136 445.693 135.364 445.693Z" fill="white"/>
<line x1="116.5" y1="327.014" x2="116.5" y2="253.986" stroke="white" stroke-width="3"/>
<line x1="116.5" y1="144.027" x2="116.5" y2="71" stroke="white" stroke-width="3"/>
<path d="M26.0264 183L22.3764 176.375H21.3514V183H17.0764V165.45H24.2514C25.6347 165.45 26.8097 165.692 27.7764 166.175C28.7597 166.658 29.493 167.325 29.9764 168.175C30.4597 169.008 30.7014 169.942 30.7014 170.975C30.7014 172.142 30.368 173.183 29.7014 174.1C29.0514 175.017 28.0847 175.667 26.8014 176.05L30.8514 183H26.0264ZM21.3514 173.35H24.0014C24.7847 173.35 25.368 173.158 25.7514 172.775C26.1514 172.392 26.3514 171.85 26.3514 171.15C26.3514 170.483 26.1514 169.958 25.7514 169.575C25.368 169.192 24.7847 169 24.0014 169H21.3514V173.35ZM45.535 175.8C45.535 176.2 45.51 176.617 45.46 177.05H35.785C35.8516 177.917 36.1266 178.583 36.61 179.05C37.11 179.5 37.7183 179.725 38.435 179.725C39.5016 179.725 40.2433 179.275 40.66 178.375H45.21C44.9766 179.292 44.5516 180.117 43.935 180.85C43.335 181.583 42.5766 182.158 41.66 182.575C40.7433 182.992 39.7183 183.2 38.585 183.2C37.2183 183.2 36.0016 182.908 34.935 182.325C33.8683 181.742 33.035 180.908 32.435 179.825C31.835 178.742 31.535 177.475 31.535 176.025C31.535 174.575 31.8266 173.308 32.41 172.225C33.01 171.142 33.8433 170.308 34.91 169.725C35.9766 169.142 37.2016 168.85 38.585 168.85C39.935 168.85 41.135 169.133 42.185 169.7C43.235 170.267 44.0516 171.075 44.635 172.125C45.235 173.175 45.535 174.4 45.535 175.8ZM41.16 174.675C41.16 173.942 40.91 173.358 40.41 172.925C39.91 172.492 39.285 172.275 38.535 172.275C37.8183 172.275 37.21 172.483 36.71 172.9C36.2266 173.317 35.9266 173.908 35.81 174.675H41.16ZM45.9402 176C45.9402 174.567 46.2069 173.308 46.7402 172.225C47.2902 171.142 48.0319 170.308 48.9652 169.725C49.8986 169.142 50.9402 168.85 52.0902 168.85C53.0736 168.85 53.9319 169.05 54.6652 169.45C55.4152 169.85 55.9902 170.375 56.3902 171.025V169.05H60.6652V183H56.3902V181.025C55.9736 181.675 55.3902 182.2 54.6402 182.6C53.9069 183 53.0486 183.2 52.0652 183.2C50.9319 183.2 49.8986 182.908 48.9652 182.325C48.0319 181.725 47.2902 180.883 46.7402 179.8C46.2069 178.7 45.9402 177.433 45.9402 176ZM56.3902 176.025C56.3902 174.958 56.0902 174.117 55.4902 173.5C54.9069 172.883 54.1902 172.575 53.3402 172.575C52.4902 172.575 51.7652 172.883 51.1652 173.5C50.5819 174.1 50.2902 174.933 50.2902 176C50.2902 177.067 50.5819 177.917 51.1652 178.55C51.7652 179.167 52.4902 179.475 53.3402 179.475C54.1902 179.475 54.9069 179.167 55.4902 178.55C56.0902 177.933 56.3902 177.092 56.3902 176.025ZM67.033 164.5V183H62.758V164.5H67.033ZM71.2811 167.6C70.5311 167.6 69.9144 167.383 69.4311 166.95C68.9644 166.5 68.7311 165.95 68.7311 165.3C68.7311 164.633 68.9644 164.083 69.4311 163.65C69.9144 163.2 70.5311 162.975 71.2811 162.975C72.0144 162.975 72.6144 163.2 73.0811 163.65C73.5644 164.083 73.8061 164.633 73.8061 165.3C73.8061 165.95 73.5644 166.5 73.0811 166.95C72.6144 167.383 72.0144 167.6 71.2811 167.6ZM73.4061 169.05V183H69.1311V169.05H73.4061ZM79.5041 179.475H85.5541V183H74.7291V179.6L80.5291 172.575H74.7791V169.05H85.4291V172.45L79.5041 179.475ZM100.056 175.8C100.056 176.2 100.031 176.617 99.9814 177.05H90.3064C90.3731 177.917 90.6481 178.583 91.1314 179.05C91.6314 179.5 92.2398 179.725 92.9564 179.725C94.0231 179.725 94.7648 179.275 95.1814 178.375H99.7314C99.4981 179.292 99.0731 180.117 98.4564 180.85C97.8564 181.583 97.0981 182.158 96.1814 182.575C95.2648 182.992 94.2398 183.2 93.1064 183.2C91.7398 183.2 90.5231 182.908 89.4564 182.325C88.3898 181.742 87.5564 180.908 86.9564 179.825C86.3564 178.742 86.0564 177.475 86.0564 176.025C86.0564 174.575 86.3481 173.308 86.9314 172.225C87.5314 171.142 88.3648 170.308 89.4314 169.725C90.4981 169.142 91.7231 168.85 93.1064 168.85C94.4564 168.85 95.6564 169.133 96.7064 169.7C97.7564 170.267 98.5731 171.075 99.1564 172.125C99.7564 173.175 100.056 174.4 100.056 175.8ZM95.6814 174.675C95.6814 173.942 95.4314 173.358 94.9314 172.925C94.4314 172.492 93.8064 172.275 93.0564 172.275C92.3398 172.275 91.7314 172.483 91.2314 172.9C90.7481 173.317 90.4481 173.908 90.3314 174.675H95.6814ZM104.76 176C104.76 174.567 105.026 173.308 105.56 172.225C106.11 171.142 106.851 170.308 107.785 169.725C108.718 169.142 109.76 168.85 110.91 168.85C111.893 168.85 112.751 169.05 113.485 169.45C114.235 169.85 114.81 170.375 115.21 171.025V169.05H119.485V183H115.21V181.025C114.793 181.675 114.21 182.2 113.46 182.6C112.726 183 111.868 183.2 110.885 183.2C109.751 183.2 108.718 182.908 107.785 182.325C106.851 181.725 106.11 180.883 105.56 179.8C105.026 178.7 104.76 177.433 104.76 176ZM115.21 176.025C115.21 174.958 114.91 174.117 114.31 173.5C113.726 172.883 113.01 172.575 112.16 172.575C111.31 172.575 110.585 172.883 109.985 173.5C109.401 174.1 109.11 174.933 109.11 176C109.11 177.067 109.401 177.917 109.985 178.55C110.585 179.167 111.31 179.475 112.16 179.475C113.01 179.475 113.726 179.167 114.31 178.55C114.91 177.933 115.21 177.092 115.21 176.025ZM125.025 176.025C125.025 174.575 125.317 173.308 125.9 172.225C126.5 171.142 127.325 170.308 128.375 169.725C129.442 169.142 130.659 168.85 132.025 168.85C133.775 168.85 135.234 169.308 136.4 170.225C137.584 171.142 138.359 172.433 138.725 174.1H134.175C133.792 173.033 133.05 172.5 131.95 172.5C131.167 172.5 130.542 172.808 130.075 173.425C129.609 174.025 129.375 174.892 129.375 176.025C129.375 177.158 129.609 178.033 130.075 178.65C130.542 179.25 131.167 179.55 131.95 179.55C133.05 179.55 133.792 179.017 134.175 177.95H138.725C138.359 179.583 137.584 180.867 136.4 181.8C135.217 182.733 133.759 183.2 132.025 183.2C130.659 183.2 129.442 182.908 128.375 182.325C127.325 181.742 126.5 180.908 125.9 179.825C125.317 178.742 125.025 177.475 125.025 176.025ZM146.362 183.2C144.995 183.2 143.762 182.908 142.662 182.325C141.579 181.742 140.72 180.908 140.087 179.825C139.47 178.742 139.162 177.475 139.162 176.025C139.162 174.592 139.479 173.333 140.112 172.25C140.745 171.15 141.612 170.308 142.712 169.725C143.812 169.142 145.045 168.85 146.412 168.85C147.779 168.85 149.012 169.142 150.112 169.725C151.212 170.308 152.079 171.15 152.712 172.25C153.345 173.333 153.662 174.592 153.662 176.025C153.662 177.458 153.337 178.725 152.687 179.825C152.054 180.908 151.179 181.742 150.062 182.325C148.962 182.908 147.729 183.2 146.362 183.2ZM146.362 179.5C147.179 179.5 147.87 179.2 148.437 178.6C149.02 178 149.312 177.142 149.312 176.025C149.312 174.908 149.029 174.05 148.462 173.45C147.912 172.85 147.229 172.55 146.412 172.55C145.579 172.55 144.887 172.85 144.337 173.45C143.787 174.033 143.512 174.892 143.512 176.025C143.512 177.142 143.779 178 144.312 178.6C144.862 179.2 145.545 179.5 146.362 179.5ZM172.73 168.9C174.463 168.9 175.838 169.425 176.855 170.475C177.888 171.525 178.405 172.983 178.405 174.85V183H174.155V175.425C174.155 174.525 173.913 173.833 173.43 173.35C172.963 172.85 172.313 172.6 171.48 172.6C170.647 172.6 169.988 172.85 169.505 173.35C169.038 173.833 168.805 174.525 168.805 175.425V183H164.555V175.425C164.555 174.525 164.313 173.833 163.83 173.35C163.363 172.85 162.713 172.6 161.88 172.6C161.047 172.6 160.388 172.85 159.905 173.35C159.438 173.833 159.205 174.525 159.205 175.425V183H154.93V169.05H159.205V170.8C159.638 170.217 160.205 169.758 160.905 169.425C161.605 169.075 162.397 168.9 163.28 168.9C164.33 168.9 165.263 169.125 166.08 169.575C166.913 170.025 167.563 170.667 168.03 171.5C168.513 170.733 169.172 170.108 170.005 169.625C170.838 169.142 171.747 168.9 172.73 168.9ZM184.67 171.025C185.086 170.375 185.661 169.85 186.395 169.45C187.128 169.05 187.986 168.85 188.97 168.85C190.12 168.85 191.161 169.142 192.095 169.725C193.028 170.308 193.761 171.142 194.295 172.225C194.845 173.308 195.12 174.567 195.12 176C195.12 177.433 194.845 178.7 194.295 179.8C193.761 180.883 193.028 181.725 192.095 182.325C191.161 182.908 190.12 183.2 188.97 183.2C188.003 183.2 187.145 183 186.395 182.6C185.661 182.2 185.086 181.683 184.67 181.05V189.65H180.395V169.05H184.67V171.025ZM190.77 176C190.77 174.933 190.47 174.1 189.87 173.5C189.286 172.883 188.561 172.575 187.695 172.575C186.845 172.575 186.12 172.883 185.52 173.5C184.936 174.117 184.645 174.958 184.645 176.025C184.645 177.092 184.936 177.933 185.52 178.55C186.12 179.167 186.845 179.475 187.695 179.475C188.545 179.475 189.27 179.167 189.87 178.55C190.47 177.917 190.77 177.067 190.77 176ZM200.638 171.375C201.138 170.608 201.763 170.008 202.513 169.575C203.263 169.125 204.096 168.9 205.013 168.9V173.425H203.838C202.771 173.425 201.971 173.658 201.438 174.125C200.904 174.575 200.638 175.375 200.638 176.525V183H196.363V169.05H200.638V171.375ZM205.206 176C205.206 174.567 205.473 173.308 206.006 172.225C206.556 171.142 207.298 170.308 208.231 169.725C209.164 169.142 210.206 168.85 211.356 168.85C212.339 168.85 213.198 169.05 213.931 169.45C214.681 169.85 215.256 170.375 215.656 171.025V169.05H219.931V183H215.656V181.025C215.239 181.675 214.656 182.2 213.906 182.6C213.173 183 212.314 183.2 211.331 183.2C210.198 183.2 209.164 182.908 208.231 182.325C207.298 181.725 206.556 180.883 206.006 179.8C205.473 178.7 205.206 177.433 205.206 176ZM215.656 176.025C215.656 174.958 215.356 174.117 214.756 173.5C214.173 172.883 213.456 172.575 212.606 172.575C211.756 172.575 211.031 172.883 210.431 173.5C209.848 174.1 209.556 174.933 209.556 176C209.556 177.067 209.848 177.917 210.431 178.55C211.031 179.167 211.756 179.475 212.606 179.475C213.456 179.475 214.173 179.167 214.756 178.55C215.356 177.933 215.656 177.092 215.656 176.025ZM15.0285 202.9C16.6618 202.9 17.9618 203.433 18.9285 204.5C19.9118 205.55 20.4035 207 20.4035 208.85V217H16.1535V209.425C16.1535 208.492 15.9118 207.767 15.4285 207.25C14.9452 206.733 14.2952 206.475 13.4785 206.475C12.6618 206.475 12.0118 206.733 11.5285 207.25C11.0452 207.767 10.8035 208.492 10.8035 209.425V217H6.52852V203.05H10.8035V204.9C11.2368 204.283 11.8202 203.8 12.5535 203.45C13.2868 203.083 14.1118 202.9 15.0285 202.9ZM21.5242 210C21.5242 208.567 21.7909 207.308 22.3242 206.225C22.8742 205.142 23.6159 204.308 24.5492 203.725C25.4826 203.142 26.5242 202.85 27.6742 202.85C28.6576 202.85 29.5159 203.05 30.2492 203.45C30.9992 203.85 31.5742 204.375 31.9742 205.025V203.05H36.2492V217H31.9742V215.025C31.5576 215.675 30.9742 216.2 30.2242 216.6C29.4909 217 28.6326 217.2 27.6492 217.2C26.5159 217.2 25.4826 216.908 24.5492 216.325C23.6159 215.725 22.8742 214.883 22.3242 213.8C21.7909 212.7 21.5242 211.433 21.5242 210ZM31.9742 210.025C31.9742 208.958 31.6742 208.117 31.0742 207.5C30.4909 206.883 29.7742 206.575 28.9242 206.575C28.0742 206.575 27.3492 206.883 26.7492 207.5C26.1659 208.1 25.8742 208.933 25.8742 210C25.8742 211.067 26.1659 211.917 26.7492 212.55C27.3492 213.167 28.0742 213.475 28.9242 213.475C29.7742 213.475 30.4909 213.167 31.0742 212.55C31.6742 211.933 31.9742 211.092 31.9742 210.025ZM44.017 217.2C42.8003 217.2 41.717 216.992 40.767 216.575C39.817 216.158 39.067 215.592 38.517 214.875C37.967 214.142 37.6587 213.325 37.592 212.425H41.817C41.867 212.908 42.092 213.3 42.492 213.6C42.892 213.9 43.3837 214.05 43.967 214.05C44.5003 214.05 44.9087 213.95 45.192 213.75C45.492 213.533 45.642 213.258 45.642 212.925C45.642 212.525 45.4337 212.233 45.017 212.05C44.6003 211.85 43.9253 211.633 42.992 211.4C41.992 211.167 41.1587 210.925 40.492 210.675C39.8253 210.408 39.2503 210 38.767 209.45C38.2837 208.883 38.042 208.125 38.042 207.175C38.042 206.375 38.2587 205.65 38.692 205C39.142 204.333 39.792 203.808 40.642 203.425C41.5087 203.042 42.5337 202.85 43.717 202.85C45.467 202.85 46.842 203.283 47.842 204.15C48.8587 205.017 49.442 206.167 49.592 207.6H45.642C45.5753 207.117 45.3587 206.733 44.992 206.45C44.642 206.167 44.1753 206.025 43.592 206.025C43.092 206.025 42.7087 206.125 42.442 206.325C42.1753 206.508 42.042 206.767 42.042 207.1C42.042 207.5 42.2503 207.8 42.667 208C43.1003 208.2 43.767 208.4 44.667 208.6C45.7003 208.867 46.542 209.133 47.192 209.4C47.842 209.65 48.4087 210.067 48.892 210.65C49.392 211.217 49.6503 211.983 49.667 212.95C49.667 213.767 49.4337 214.5 48.967 215.15C48.517 215.783 47.8587 216.283 46.992 216.65C46.142 217.017 45.1503 217.2 44.017 217.2ZM59.8553 198.5V217H55.5803V198.5H59.8553ZM68.3033 217.2C66.9367 217.2 65.7033 216.908 64.6033 216.325C63.52 215.742 62.6617 214.908 62.0283 213.825C61.4117 212.742 61.1033 211.475 61.1033 210.025C61.1033 208.592 61.42 207.333 62.0533 206.25C62.6867 205.15 63.5533 204.308 64.6533 203.725C65.7533 203.142 66.9867 202.85 68.3533 202.85C69.72 202.85 70.9533 203.142 72.0533 203.725C73.1533 204.308 74.02 205.15 74.6533 206.25C75.2867 207.333 75.6033 208.592 75.6033 210.025C75.6033 211.458 75.2783 212.725 74.6283 213.825C73.995 214.908 73.12 215.742 72.0033 216.325C70.9033 216.908 69.67 217.2 68.3033 217.2ZM68.3033 213.5C69.12 213.5 69.8117 213.2 70.3783 212.6C70.9617 212 71.2533 211.142 71.2533 210.025C71.2533 208.908 70.97 208.05 70.4033 207.45C69.8533 206.85 69.17 206.55 68.3533 206.55C67.52 206.55 66.8283 206.85 66.2783 207.45C65.7283 208.033 65.4533 208.892 65.4533 210.025C65.4533 211.142 65.72 212 66.2533 212.6C66.8033 213.2 67.4867 213.5 68.3033 213.5ZM78.9963 201.6C78.2463 201.6 77.6296 201.383 77.1463 200.95C76.6796 200.5 76.4463 199.95 76.4463 199.3C76.4463 198.633 76.6796 198.083 77.1463 197.65C77.6296 197.2 78.2463 196.975 78.9963 196.975C79.7296 196.975 80.3296 197.2 80.7963 197.65C81.2796 198.083 81.5213 198.633 81.5213 199.3C81.5213 199.95 81.2796 200.5 80.7963 200.95C80.3296 201.383 79.7296 201.6 78.9963 201.6ZM81.1463 218.8C81.1463 220.517 80.713 221.75 79.8463 222.5C78.9796 223.267 77.7713 223.65 76.2213 223.65H74.5463V220.025H75.5713C76.038 220.025 76.3713 219.933 76.5713 219.75C76.7713 219.567 76.8713 219.267 76.8713 218.85V203.05H81.1463V218.8ZM82.3699 210C82.3699 208.567 82.6366 207.308 83.1699 206.225C83.7199 205.142 84.4616 204.308 85.3949 203.725C86.3283 203.142 87.3699 202.85 88.5199 202.85C89.5033 202.85 90.3616 203.05 91.0949 203.45C91.8449 203.85 92.4199 204.375 92.8199 205.025V203.05H97.0949V217H92.8199V215.025C92.4033 215.675 91.8199 216.2 91.0699 216.6C90.3366 217 89.4783 217.2 88.4949 217.2C87.3616 217.2 86.3283 216.908 85.3949 216.325C84.4616 215.725 83.7199 214.883 83.1699 213.8C82.6366 212.7 82.3699 211.433 82.3699 210ZM92.8199 210.025C92.8199 208.958 92.5199 208.117 91.9199 207.5C91.3366 206.883 90.6199 206.575 89.7699 206.575C88.9199 206.575 88.1949 206.883 87.5949 207.5C87.0116 208.1 86.7199 208.933 86.7199 210C86.7199 211.067 87.0116 211.917 87.5949 212.55C88.1949 213.167 88.9199 213.475 89.7699 213.475C90.6199 213.475 91.3366 213.167 91.9199 212.55C92.5199 211.933 92.8199 211.092 92.8199 210.025ZM104.863 217.2C103.646 217.2 102.563 216.992 101.613 216.575C100.663 216.158 99.9127 215.592 99.3627 214.875C98.8127 214.142 98.5044 213.325 98.4377 212.425H102.663C102.713 212.908 102.938 213.3 103.338 213.6C103.738 213.9 104.229 214.05 104.813 214.05C105.346 214.05 105.754 213.95 106.038 213.75C106.338 213.533 106.488 213.258 106.488 212.925C106.488 212.525 106.279 212.233 105.863 212.05C105.446 211.85 104.771 211.633 103.838 211.4C102.838 211.167 102.004 210.925 101.338 210.675C100.671 210.408 100.096 210 99.6127 209.45C99.1294 208.883 98.8877 208.125 98.8877 207.175C98.8877 206.375 99.1044 205.65 99.5377 205C99.9877 204.333 100.638 203.808 101.488 203.425C102.354 203.042 103.379 202.85 104.563 202.85C106.313 202.85 107.688 203.283 108.688 204.15C109.704 205.017 110.288 206.167 110.438 207.6H106.488C106.421 207.117 106.204 206.733 105.838 206.45C105.488 206.167 105.021 206.025 104.438 206.025C103.938 206.025 103.554 206.125 103.288 206.325C103.021 206.508 102.888 206.767 102.888 207.1C102.888 207.5 103.096 207.8 103.513 208C103.946 208.2 104.613 208.4 105.513 208.6C106.546 208.867 107.388 209.133 108.038 209.4C108.688 209.65 109.254 210.067 109.738 210.65C110.238 211.217 110.496 211.983 110.513 212.95C110.513 213.767 110.279 214.5 109.813 215.15C109.363 215.783 108.704 216.283 107.838 216.65C106.988 217.017 105.996 217.2 104.863 217.2ZM120.701 205.025C121.118 204.375 121.693 203.85 122.426 203.45C123.159 203.05 124.018 202.85 125.001 202.85C126.151 202.85 127.193 203.142 128.126 203.725C129.059 204.308 129.793 205.142 130.326 206.225C130.876 207.308 131.151 208.567 131.151 210C131.151 211.433 130.876 212.7 130.326 213.8C129.793 214.883 129.059 215.725 128.126 216.325C127.193 216.908 126.151 217.2 125.001 217.2C124.034 217.2 123.176 217 122.426 216.6C121.693 216.2 121.118 215.683 120.701 215.05V223.65H116.426V203.05H120.701V205.025ZM126.801 210C126.801 208.933 126.501 208.1 125.901 207.5C125.318 206.883 124.593 206.575 123.726 206.575C122.876 206.575 122.151 206.883 121.551 207.5C120.968 208.117 120.676 208.958 120.676 210.025C120.676 211.092 120.968 211.933 121.551 212.55C122.151 213.167 122.876 213.475 123.726 213.475C124.576 213.475 125.301 213.167 125.901 212.55C126.501 211.917 126.801 211.067 126.801 210ZM131.544 210C131.544 208.567 131.81 207.308 132.344 206.225C132.894 205.142 133.635 204.308 134.569 203.725C135.502 203.142 136.544 202.85 137.694 202.85C138.677 202.85 139.535 203.05 140.269 203.45C141.019 203.85 141.594 204.375 141.994 205.025V203.05H146.269V217H141.994V215.025C141.577 215.675 140.994 216.2 140.244 216.6C139.51 217 138.652 217.2 137.669 217.2C136.535 217.2 135.502 216.908 134.569 216.325C133.635 215.725 132.894 214.883 132.344 213.8C131.81 212.7 131.544 211.433 131.544 210ZM141.994 210.025C141.994 208.958 141.694 208.117 141.094 207.5C140.51 206.883 139.794 206.575 138.944 206.575C138.094 206.575 137.369 206.883 136.769 207.5C136.185 208.1 135.894 208.933 135.894 210C135.894 211.067 136.185 211.917 136.769 212.55C137.369 213.167 138.094 213.475 138.944 213.475C139.794 213.475 140.51 213.167 141.094 212.55C141.694 211.933 141.994 211.092 141.994 210.025ZM152.637 205.375C153.137 204.608 153.762 204.008 154.512 203.575C155.262 203.125 156.095 202.9 157.012 202.9V207.425H155.837C154.77 207.425 153.97 207.658 153.437 208.125C152.903 208.575 152.637 209.375 152.637 210.525V217H148.362V203.05H152.637V205.375ZM157.205 210.025C157.205 208.575 157.497 207.308 158.08 206.225C158.68 205.142 159.505 204.308 160.555 203.725C161.622 203.142 162.838 202.85 164.205 202.85C165.955 202.85 167.413 203.308 168.58 204.225C169.763 205.142 170.538 206.433 170.905 208.1H166.355C165.972 207.033 165.23 206.5 164.13 206.5C163.347 206.5 162.722 206.808 162.255 207.425C161.788 208.025 161.555 208.892 161.555 210.025C161.555 211.158 161.788 212.033 162.255 212.65C162.722 213.25 163.347 213.55 164.13 213.55C165.23 213.55 165.972 213.017 166.355 211.95H170.905C170.538 213.583 169.763 214.867 168.58 215.8C167.397 216.733 165.938 217.2 164.205 217.2C162.838 217.2 161.622 216.908 160.555 216.325C159.505 215.742 158.68 214.908 158.08 213.825C157.497 212.742 157.205 211.475 157.205 210.025ZM185.342 209.8C185.342 210.2 185.317 210.617 185.267 211.05H175.592C175.658 211.917 175.933 212.583 176.417 213.05C176.917 213.5 177.525 213.725 178.242 213.725C179.308 213.725 180.05 213.275 180.467 212.375H185.017C184.783 213.292 184.358 214.117 183.742 214.85C183.142 215.583 182.383 216.158 181.467 216.575C180.55 216.992 179.525 217.2 178.392 217.2C177.025 217.2 175.808 216.908 174.742 216.325C173.675 215.742 172.842 214.908 172.242 213.825C171.642 212.742 171.342 211.475 171.342 210.025C171.342 208.575 171.633 207.308 172.217 206.225C172.817 205.142 173.65 204.308 174.717 203.725C175.783 203.142 177.008 202.85 178.392 202.85C179.742 202.85 180.942 203.133 181.992 203.7C183.042 204.267 183.858 205.075 184.442 206.125C185.042 207.175 185.342 208.4 185.342 209.8ZM180.967 208.675C180.967 207.942 180.717 207.358 180.217 206.925C179.717 206.492 179.092 206.275 178.342 206.275C177.625 206.275 177.017 206.483 176.517 206.9C176.033 207.317 175.733 207.908 175.617 208.675H180.967ZM188.747 201.6C187.997 201.6 187.38 201.383 186.897 200.95C186.43 200.5 186.197 199.95 186.197 199.3C186.197 198.633 186.43 198.083 186.897 197.65C187.38 197.2 187.997 196.975 188.747 196.975C189.48 196.975 190.08 197.2 190.547 197.65C191.03 198.083 191.272 198.633 191.272 199.3C191.272 199.95 191.03 200.5 190.547 200.95C190.08 201.383 189.48 201.6 188.747 201.6ZM190.872 203.05V217H186.597V203.05H190.872ZM197.245 205.375C197.745 204.608 198.37 204.008 199.12 203.575C199.87 203.125 200.703 202.9 201.62 202.9V207.425H200.445C199.378 207.425 198.578 207.658 198.045 208.125C197.512 208.575 197.245 209.375 197.245 210.525V217H192.97V203.05H197.245V205.375ZM201.813 210C201.813 208.567 202.08 207.308 202.613 206.225C203.163 205.142 203.905 204.308 204.838 203.725C205.772 203.142 206.813 202.85 207.963 202.85C208.947 202.85 209.805 203.05 210.538 203.45C211.288 203.85 211.863 204.375 212.263 205.025V203.05H216.538V217H212.263V215.025C211.847 215.675 211.263 216.2 210.513 216.6C209.78 217 208.922 217.2 207.938 217.2C206.805 217.2 205.772 216.908 204.838 216.325C203.905 215.725 203.163 214.883 202.613 213.8C202.08 212.7 201.813 211.433 201.813 210ZM212.263 210.025C212.263 208.958 211.963 208.117 211.363 207.5C210.78 206.883 210.063 206.575 209.213 206.575C208.363 206.575 207.638 206.883 207.038 207.5C206.455 208.1 206.163 208.933 206.163 210C206.163 211.067 206.455 211.917 207.038 212.55C207.638 213.167 208.363 213.475 209.213 213.475C210.063 213.475 210.78 213.167 211.363 212.55C211.963 211.933 212.263 211.092 212.263 210.025ZM224.306 217.2C223.089 217.2 222.006 216.992 221.056 216.575C220.106 216.158 219.356 215.592 218.806 214.875C218.256 214.142 217.948 213.325 217.881 212.425H222.106C222.156 212.908 222.381 213.3 222.781 213.6C223.181 213.9 223.673 214.05 224.256 214.05C224.789 214.05 225.198 213.95 225.481 213.75C225.781 213.533 225.931 213.258 225.931 212.925C225.931 212.525 225.723 212.233 225.306 212.05C224.889 211.85 224.214 211.633 223.281 211.4C222.281 211.167 221.448 210.925 220.781 210.675C220.114 210.408 219.539 210 219.056 209.45C218.573 208.883 218.331 208.125 218.331 207.175C218.331 206.375 218.548 205.65 218.981 205C219.431 204.333 220.081 203.808 220.931 203.425C221.798 203.042 222.823 202.85 224.006 202.85C225.756 202.85 227.131 203.283 228.131 204.15C229.148 205.017 229.731 206.167 229.881 207.6H225.931C225.864 207.117 225.648 206.733 225.281 206.45C224.931 206.167 224.464 206.025 223.881 206.025C223.381 206.025 222.998 206.125 222.731 206.325C222.464 206.508 222.331 206.767 222.331 207.1C222.331 207.5 222.539 207.8 222.956 208C223.389 208.2 224.056 208.4 224.956 208.6C225.989 208.867 226.831 209.133 227.481 209.4C228.131 209.65 228.698 210.067 229.181 210.65C229.681 211.217 229.939 211.983 229.956 212.95C229.956 213.767 229.723 214.5 229.256 215.15C228.806 215.783 228.148 216.283 227.281 216.65C226.431 217.017 225.439 217.2 224.306 217.2Z" fill="white"/>
<path d="M106.748 11.7V5.15L115.748 -2.38419e-06H121.748V29H129.748V35H106.748V29H114.748V7.1L106.748 11.7Z" fill="white"/>
</svg>
