<svg width="236" height="470" viewBox="0 0 236 470" fill="none" xmlns="http://www.w3.org/2000/svg">
<circle cx="119.5" cy="81.5" r="79" fill="#4A90E2" stroke="white" stroke-width="5"/>
<path fill-rule="evenodd" clip-rule="evenodd" d="M139.865 94.2977H157.641C160.573 94.2977 163.385 92.8866 165.458 90.375C167.532 87.8633 168.696 84.4568 168.696 80.9048C168.696 77.3528 167.532 73.9463 165.458 71.4346C163.385 68.923 160.573 67.5119 157.641 67.5119H96.2564C95.4354 67.5114 94.6308 67.234 93.9326 66.7108C93.2344 66.1875 92.6702 65.4392 92.3032 64.5494L90.3222 59.7602C89.9552 58.8704 89.3911 58.1221 88.6929 57.5988C87.9947 57.0756 87.19 56.7982 86.369 56.7977H78.1221C77.39 56.7969 76.6692 57.0163 76.0244 57.4363C75.3795 57.8563 74.8309 58.4637 74.4276 59.2039C74.0243 59.9442 73.7791 60.7942 73.7139 61.6776C73.6487 62.5611 73.7655 63.4503 74.054 64.2655L83.5301 91.0512C83.8714 92.0155 84.4388 92.8372 85.162 93.4143C85.8852 93.9914 86.7323 94.2986 87.5983 94.2977H104.68C105.402 94.2982 106.114 94.5131 106.751 94.9235C107.389 95.3339 107.934 95.9273 108.339 96.6519C108.744 97.3765 108.996 98.2102 109.074 99.0801C109.151 99.9501 109.052 100.83 108.784 101.642L104.8 113.744C104.533 114.556 104.434 115.435 104.511 116.303C104.589 117.172 104.841 118.005 105.245 118.728C105.65 119.452 106.194 120.045 106.831 120.456C107.467 120.866 108.177 121.082 108.899 121.083H117.928C118.591 121.084 119.246 120.903 119.844 120.556C120.442 120.208 120.967 119.702 121.382 119.074L136.416 96.3066C136.83 95.6801 137.355 95.1744 137.952 94.8267C138.549 94.4789 139.203 94.2982 139.865 94.2977ZM109 62.1548H130.005L121.382 48.2262C120.97 47.5609 120.436 47.0209 119.822 46.6489C119.208 46.277 118.531 46.0834 117.844 46.0834H109.522C108.769 46.0839 108.028 46.3176 107.37 46.7624C106.712 47.2071 106.159 47.8482 105.763 48.6248C105.367 49.4013 105.141 50.2876 105.107 51.1995C105.073 52.1114 105.232 53.0186 105.569 53.8352L109 62.1548Z" fill="white"/>
<line x1="118.5" y1="409" x2="118.5" y2="365" stroke="white" stroke-width="3"/>
<line x1="118.5" y1="243.019" x2="117.5" y2="163.019" stroke="white" stroke-width="3"/>
<path d="M60.6599 262.45V265.875H56.0099V280H51.7349V265.875H47.0849V262.45H60.6599ZM66.0804 268.375C66.5804 267.608 67.2054 267.008 67.9554 266.575C68.7054 266.125 69.5387 265.9 70.4554 265.9V270.425H69.2804C68.2137 270.425 67.4137 270.658 66.8804 271.125C66.347 271.575 66.0804 272.375 66.0804 273.525V280H61.8054V266.05H66.0804V268.375ZM77.8487 280.2C76.4821 280.2 75.2487 279.908 74.1487 279.325C73.0654 278.742 72.2071 277.908 71.5737 276.825C70.9571 275.742 70.6487 274.475 70.6487 273.025C70.6487 271.592 70.9654 270.333 71.5987 269.25C72.2321 268.15 73.0987 267.308 74.1987 266.725C75.2987 266.142 76.5321 265.85 77.8987 265.85C79.2654 265.85 80.4987 266.142 81.5987 266.725C82.6987 267.308 83.5654 268.15 84.1987 269.25C84.8321 270.333 85.1487 271.592 85.1487 273.025C85.1487 274.458 84.8237 275.725 84.1737 276.825C83.5404 277.908 82.6654 278.742 81.5487 279.325C80.4487 279.908 79.2154 280.2 77.8487 280.2ZM77.8487 276.5C78.6654 276.5 79.3571 276.2 79.9237 275.6C80.5071 275 80.7987 274.142 80.7987 273.025C80.7987 271.908 80.5154 271.05 79.9487 270.45C79.3987 269.85 78.7154 269.55 77.8987 269.55C77.0654 269.55 76.3737 269.85 75.8237 270.45C75.2737 271.033 74.9987 271.892 74.9987 273.025C74.9987 274.142 75.2654 275 75.7987 275.6C76.3487 276.2 77.0321 276.5 77.8487 276.5ZM85.5667 273.05C85.5667 271.667 85.85 270.433 86.4167 269.35C87 268.267 87.775 267.425 88.7417 266.825C89.725 266.208 90.7917 265.9 91.9417 265.9C92.825 265.9 93.6167 266.058 94.3167 266.375C95.0167 266.675 95.5834 267.1 96.0167 267.65V266.05H100.292V286.65H96.0167V278.25C95.5334 278.833 94.9417 279.3 94.2417 279.65C93.5584 280 92.775 280.175 91.8917 280.175C90.7584 280.175 89.7084 279.875 88.7417 279.275C87.775 278.675 87 277.833 86.4167 276.75C85.85 275.667 85.5667 274.433 85.5667 273.05ZM96.0167 273.025C96.0167 272.275 95.8667 271.65 95.5667 271.15C95.2834 270.633 94.9084 270.25 94.4417 270C93.975 269.733 93.4834 269.6 92.9667 269.6C92.4667 269.6 91.9834 269.733 91.5167 270C91.05 270.25 90.6667 270.633 90.3667 271.15C90.0667 271.667 89.9167 272.3 89.9167 273.05C89.9167 273.8 90.0667 274.433 90.3667 274.95C90.6667 275.45 91.05 275.833 91.5167 276.1C91.9834 276.35 92.4667 276.475 92.9667 276.475C93.4667 276.475 93.95 276.35 94.4167 276.1C94.9 275.833 95.2834 275.442 95.5667 274.925C95.8667 274.408 96.0167 273.775 96.0167 273.025ZM116.159 266.05V280H111.884V278.1C111.451 278.717 110.859 279.217 110.109 279.6C109.376 279.967 108.559 280.15 107.659 280.15C106.593 280.15 105.651 279.917 104.834 279.45C104.018 278.967 103.384 278.275 102.934 277.375C102.484 276.475 102.259 275.417 102.259 274.2V266.05H106.509V273.625C106.509 274.558 106.751 275.283 107.234 275.8C107.718 276.317 108.368 276.575 109.184 276.575C110.018 276.575 110.676 276.317 111.159 275.8C111.643 275.283 111.884 274.558 111.884 273.625V266.05H116.159ZM131.38 272.8C131.38 273.2 131.355 273.617 131.305 274.05H121.63C121.697 274.917 121.972 275.583 122.455 276.05C122.955 276.5 123.564 276.725 124.28 276.725C125.347 276.725 126.089 276.275 126.505 275.375H131.055C130.822 276.292 130.397 277.117 129.78 277.85C129.18 278.583 128.422 279.158 127.505 279.575C126.589 279.992 125.564 280.2 124.43 280.2C123.064 280.2 121.847 279.908 120.78 279.325C119.714 278.742 118.88 277.908 118.28 276.825C117.68 275.742 117.38 274.475 117.38 273.025C117.38 271.575 117.672 270.308 118.255 269.225C118.855 268.142 119.689 267.308 120.755 266.725C121.822 266.142 123.047 265.85 124.43 265.85C125.78 265.85 126.98 266.133 128.03 266.7C129.08 267.267 129.897 268.075 130.48 269.125C131.08 270.175 131.38 271.4 131.38 272.8ZM127.005 271.675C127.005 270.942 126.755 270.358 126.255 269.925C125.755 269.492 125.13 269.275 124.38 269.275C123.664 269.275 123.055 269.483 122.555 269.9C122.072 270.317 121.772 270.908 121.655 271.675H127.005ZM142.608 280.2C141.392 280.2 140.308 279.992 139.358 279.575C138.408 279.158 137.658 278.592 137.108 277.875C136.558 277.142 136.25 276.325 136.183 275.425H140.408C140.458 275.908 140.683 276.3 141.083 276.6C141.483 276.9 141.975 277.05 142.558 277.05C143.092 277.05 143.5 276.95 143.783 276.75C144.083 276.533 144.233 276.258 144.233 275.925C144.233 275.525 144.025 275.233 143.608 275.05C143.192 274.85 142.517 274.633 141.583 274.4C140.583 274.167 139.75 273.925 139.083 273.675C138.417 273.408 137.842 273 137.358 272.45C136.875 271.883 136.633 271.125 136.633 270.175C136.633 269.375 136.85 268.65 137.283 268C137.733 267.333 138.383 266.808 139.233 266.425C140.1 266.042 141.125 265.85 142.308 265.85C144.058 265.85 145.433 266.283 146.433 267.15C147.45 268.017 148.033 269.167 148.183 270.6H144.233C144.167 270.117 143.95 269.733 143.583 269.45C143.233 269.167 142.767 269.025 142.183 269.025C141.683 269.025 141.3 269.125 141.033 269.325C140.767 269.508 140.633 269.767 140.633 270.1C140.633 270.5 140.842 270.8 141.258 271C141.692 271.2 142.358 271.4 143.258 271.6C144.292 271.867 145.133 272.133 145.783 272.4C146.433 272.65 147 273.067 147.483 273.65C147.983 274.217 148.242 274.983 148.258 275.95C148.258 276.767 148.025 277.5 147.558 278.15C147.108 278.783 146.45 279.283 145.583 279.65C144.733 280.017 143.742 280.2 142.608 280.2ZM163.024 272.8C163.024 273.2 162.999 273.617 162.949 274.05H153.274C153.34 274.917 153.615 275.583 154.099 276.05C154.599 276.5 155.207 276.725 155.924 276.725C156.99 276.725 157.732 276.275 158.149 275.375H162.699C162.465 276.292 162.04 277.117 161.424 277.85C160.824 278.583 160.065 279.158 159.149 279.575C158.232 279.992 157.207 280.2 156.074 280.2C154.707 280.2 153.49 279.908 152.424 279.325C151.357 278.742 150.524 277.908 149.924 276.825C149.324 275.742 149.024 274.475 149.024 273.025C149.024 271.575 149.315 270.308 149.899 269.225C150.499 268.142 151.332 267.308 152.399 266.725C153.465 266.142 154.69 265.85 156.074 265.85C157.424 265.85 158.624 266.133 159.674 266.7C160.724 267.267 161.54 268.075 162.124 269.125C162.724 270.175 163.024 271.4 163.024 272.8ZM158.649 271.675C158.649 270.942 158.399 270.358 157.899 269.925C157.399 269.492 156.774 269.275 156.024 269.275C155.307 269.275 154.699 269.483 154.199 269.9C153.715 270.317 153.415 270.908 153.299 271.675H158.649ZM178.054 266.05V280H173.779V278.1C173.346 278.717 172.754 279.217 172.004 279.6C171.271 279.967 170.454 280.15 169.554 280.15C168.487 280.15 167.546 279.917 166.729 279.45C165.912 278.967 165.279 278.275 164.829 277.375C164.379 276.475 164.154 275.417 164.154 274.2V266.05H168.404V273.625C168.404 274.558 168.646 275.283 169.129 275.8C169.612 276.317 170.262 276.575 171.079 276.575C171.912 276.575 172.571 276.317 173.054 275.8C173.537 275.283 173.779 274.558 173.779 273.625V266.05H178.054ZM185.8 280.2C184.583 280.2 183.5 279.992 182.55 279.575C181.6 279.158 180.85 278.592 180.3 277.875C179.75 277.142 179.441 276.325 179.375 275.425H183.6C183.65 275.908 183.875 276.3 184.275 276.6C184.675 276.9 185.166 277.05 185.75 277.05C186.283 277.05 186.691 276.95 186.975 276.75C187.275 276.533 187.425 276.258 187.425 275.925C187.425 275.525 187.216 275.233 186.8 275.05C186.383 274.85 185.708 274.633 184.775 274.4C183.775 274.167 182.941 273.925 182.275 273.675C181.608 273.408 181.033 273 180.55 272.45C180.066 271.883 179.825 271.125 179.825 270.175C179.825 269.375 180.041 268.65 180.475 268C180.925 267.333 181.575 266.808 182.425 266.425C183.291 266.042 184.316 265.85 185.5 265.85C187.25 265.85 188.625 266.283 189.625 267.15C190.641 268.017 191.225 269.167 191.375 270.6H187.425C187.358 270.117 187.141 269.733 186.775 269.45C186.425 269.167 185.958 269.025 185.375 269.025C184.875 269.025 184.491 269.125 184.225 269.325C183.958 269.508 183.825 269.767 183.825 270.1C183.825 270.5 184.033 270.8 184.45 271C184.883 271.2 185.55 271.4 186.45 271.6C187.483 271.867 188.325 272.133 188.975 272.4C189.625 272.65 190.191 273.067 190.675 273.65C191.175 274.217 191.433 274.983 191.45 275.95C191.45 276.767 191.216 277.5 190.75 278.15C190.3 278.783 189.641 279.283 188.775 279.65C187.925 280.017 186.933 280.2 185.8 280.2ZM8.4832 302.025C8.89987 301.375 9.47487 300.85 10.2082 300.45C10.9415 300.05 11.7999 299.85 12.7832 299.85C13.9332 299.85 14.9749 300.142 15.9082 300.725C16.8415 301.308 17.5749 302.142 18.1082 303.225C18.6582 304.308 18.9332 305.567 18.9332 307C18.9332 308.433 18.6582 309.7 18.1082 310.8C17.5749 311.883 16.8415 312.725 15.9082 313.325C14.9749 313.908 13.9332 314.2 12.7832 314.2C11.8165 314.2 10.9582 314 10.2082 313.6C9.47487 313.2 8.89987 312.683 8.4832 312.05V320.65H4.2082V300.05H8.4832V302.025ZM14.5832 307C14.5832 305.933 14.2832 305.1 13.6832 304.5C13.0999 303.883 12.3749 303.575 11.5082 303.575C10.6582 303.575 9.9332 303.883 9.3332 304.5C8.74987 305.117 8.4582 305.958 8.4582 307.025C8.4582 308.092 8.74987 308.933 9.3332 309.55C9.9332 310.167 10.6582 310.475 11.5082 310.475C12.3582 310.475 13.0832 310.167 13.6832 309.55C14.2832 308.917 14.5832 308.067 14.5832 307ZM26.526 314.2C25.1593 314.2 23.926 313.908 22.826 313.325C21.7426 312.742 20.8843 311.908 20.251 310.825C19.6343 309.742 19.326 308.475 19.326 307.025C19.326 305.592 19.6426 304.333 20.276 303.25C20.9093 302.15 21.776 301.308 22.876 300.725C23.976 300.142 25.2093 299.85 26.576 299.85C27.9426 299.85 29.176 300.142 30.276 300.725C31.376 301.308 32.2426 302.15 32.876 303.25C33.5093 304.333 33.826 305.592 33.826 307.025C33.826 308.458 33.501 309.725 32.851 310.825C32.2176 311.908 31.3426 312.742 30.226 313.325C29.126 313.908 27.8926 314.2 26.526 314.2ZM26.526 310.5C27.3426 310.5 28.0343 310.2 28.601 309.6C29.1843 309 29.476 308.142 29.476 307.025C29.476 305.908 29.1926 305.05 28.626 304.45C28.076 303.85 27.3926 303.55 26.576 303.55C25.7426 303.55 25.051 303.85 24.501 304.45C23.951 305.033 23.676 305.892 23.676 307.025C23.676 308.142 23.9426 309 24.476 309.6C25.026 310.2 25.7093 310.5 26.526 310.5ZM43.5939 299.9C45.2273 299.9 46.5273 300.433 47.4939 301.5C48.4773 302.55 48.9689 304 48.9689 305.85V314H44.7189V306.425C44.7189 305.492 44.4773 304.767 43.9939 304.25C43.5106 303.733 42.8606 303.475 42.0439 303.475C41.2273 303.475 40.5773 303.733 40.0939 304.25C39.6106 304.767 39.3689 305.492 39.3689 306.425V314H35.0939V300.05H39.3689V301.9C39.8023 301.283 40.3856 300.8 41.1189 300.45C41.8523 300.083 42.6773 299.9 43.5939 299.9ZM58.7146 310.375V314H56.5396C54.9896 314 53.7813 313.625 52.9146 312.875C52.048 312.108 51.6146 310.867 51.6146 309.15V303.6H49.9146V300.05H51.6146V296.65H55.8896V300.05H58.6896V303.6H55.8896V309.2C55.8896 309.617 55.9896 309.917 56.1896 310.1C56.3896 310.283 56.723 310.375 57.1896 310.375H58.7146ZM66.4459 314.2C65.0792 314.2 63.8459 313.908 62.7459 313.325C61.6626 312.742 60.8042 311.908 60.1709 310.825C59.5542 309.742 59.2459 308.475 59.2459 307.025C59.2459 305.592 59.5626 304.333 60.1959 303.25C60.8292 302.15 61.6959 301.308 62.7959 300.725C63.8959 300.142 65.1292 299.85 66.4959 299.85C67.8626 299.85 69.0959 300.142 70.1959 300.725C71.2959 301.308 72.1626 302.15 72.7959 303.25C73.4292 304.333 73.7459 305.592 73.7459 307.025C73.7459 308.458 73.4209 309.725 72.7709 310.825C72.1376 311.908 71.2626 312.742 70.1459 313.325C69.0459 313.908 67.8126 314.2 66.4459 314.2ZM66.4459 310.5C67.2626 310.5 67.9542 310.2 68.5209 309.6C69.1042 309 69.3959 308.142 69.3959 307.025C69.3959 305.908 69.1126 305.05 68.5459 304.45C67.9959 303.85 67.3126 303.55 66.4959 303.55C65.6626 303.55 64.9709 303.85 64.4209 304.45C63.8709 305.033 63.5959 305.892 63.5959 307.025C63.5959 308.142 63.8626 309 64.3959 309.6C64.9459 310.2 65.6292 310.5 66.4459 310.5ZM80.6889 314.2C79.4722 314.2 78.3889 313.992 77.4389 313.575C76.4889 313.158 75.7389 312.592 75.1889 311.875C74.6389 311.142 74.3305 310.325 74.2639 309.425H78.4889C78.5389 309.908 78.7639 310.3 79.1639 310.6C79.5639 310.9 80.0555 311.05 80.6389 311.05C81.1722 311.05 81.5805 310.95 81.8639 310.75C82.1639 310.533 82.3139 310.258 82.3139 309.925C82.3139 309.525 82.1055 309.233 81.6889 309.05C81.2722 308.85 80.5972 308.633 79.6639 308.4C78.6639 308.167 77.8305 307.925 77.1639 307.675C76.4972 307.408 75.9222 307 75.4389 306.45C74.9555 305.883 74.7139 305.125 74.7139 304.175C74.7139 303.375 74.9305 302.65 75.3639 302C75.8139 301.333 76.4639 300.808 77.3139 300.425C78.1805 300.042 79.2055 299.85 80.3889 299.85C82.1389 299.85 83.5139 300.283 84.5139 301.15C85.5305 302.017 86.1139 303.167 86.2639 304.6H82.3139C82.2472 304.117 82.0305 303.733 81.6639 303.45C81.3139 303.167 80.8472 303.025 80.2639 303.025C79.7639 303.025 79.3805 303.125 79.1139 303.325C78.8472 303.508 78.7139 303.767 78.7139 304.1C78.7139 304.5 78.9222 304.8 79.3389 305C79.7722 305.2 80.4389 305.4 81.3389 305.6C82.3722 305.867 83.2139 306.133 83.8639 306.4C84.5139 306.65 85.0805 307.067 85.5639 307.65C86.0639 308.217 86.3222 308.983 86.3389 309.95C86.3389 310.767 86.1055 311.5 85.6389 312.15C85.1889 312.783 84.5305 313.283 83.6639 313.65C82.8139 314.017 81.8222 314.2 80.6889 314.2ZM96.5271 302.025C96.9438 301.375 97.5188 300.85 98.2521 300.45C98.9855 300.05 99.8438 299.85 100.827 299.85C101.977 299.85 103.019 300.142 103.952 300.725C104.885 301.308 105.619 302.142 106.152 303.225C106.702 304.308 106.977 305.567 106.977 307C106.977 308.433 106.702 309.7 106.152 310.8C105.619 311.883 104.885 312.725 103.952 313.325C103.019 313.908 101.977 314.2 100.827 314.2C99.8605 314.2 99.0021 314 98.2521 313.6C97.5188 313.2 96.9438 312.683 96.5271 312.05V320.65H92.2521V300.05H96.5271V302.025ZM102.627 307C102.627 305.933 102.327 305.1 101.727 304.5C101.144 303.883 100.419 303.575 99.5521 303.575C98.7021 303.575 97.9771 303.883 97.3771 304.5C96.7938 305.117 96.5021 305.958 96.5021 307.025C96.5021 308.092 96.7938 308.933 97.3771 309.55C97.9771 310.167 98.7021 310.475 99.5521 310.475C100.402 310.475 101.127 310.167 101.727 309.55C102.327 308.917 102.627 308.067 102.627 307ZM114.57 314.2C113.203 314.2 111.97 313.908 110.87 313.325C109.787 312.742 108.928 311.908 108.295 310.825C107.678 309.742 107.37 308.475 107.37 307.025C107.37 305.592 107.687 304.333 108.32 303.25C108.953 302.15 109.82 301.308 110.92 300.725C112.02 300.142 113.253 299.85 114.62 299.85C115.987 299.85 117.22 300.142 118.32 300.725C119.42 301.308 120.287 302.15 120.92 303.25C121.553 304.333 121.87 305.592 121.87 307.025C121.87 308.458 121.545 309.725 120.895 310.825C120.262 311.908 119.387 312.742 118.27 313.325C117.17 313.908 115.937 314.2 114.57 314.2ZM114.57 310.5C115.387 310.5 116.078 310.2 116.645 309.6C117.228 309 117.52 308.142 117.52 307.025C117.52 305.908 117.237 305.05 116.67 304.45C116.12 303.85 115.437 303.55 114.62 303.55C113.787 303.55 113.095 303.85 112.545 304.45C111.995 305.033 111.72 305.892 111.72 307.025C111.72 308.142 111.987 309 112.52 309.6C113.07 310.2 113.753 310.5 114.57 310.5ZM127.413 302.375C127.913 301.608 128.538 301.008 129.288 300.575C130.038 300.125 130.871 299.9 131.788 299.9V304.425H130.613C129.546 304.425 128.746 304.658 128.213 305.125C127.68 305.575 127.413 306.375 127.413 307.525V314H123.138V300.05H127.413V302.375ZM141.404 302.025C141.821 301.375 142.396 300.85 143.129 300.45C143.862 300.05 144.721 299.85 145.704 299.85C146.854 299.85 147.896 300.142 148.829 300.725C149.762 301.308 150.496 302.142 151.029 303.225C151.579 304.308 151.854 305.567 151.854 307C151.854 308.433 151.579 309.7 151.029 310.8C150.496 311.883 149.762 312.725 148.829 313.325C147.896 313.908 146.854 314.2 145.704 314.2C144.737 314.2 143.879 314 143.129 313.6C142.396 313.2 141.821 312.683 141.404 312.05V320.65H137.129V300.05H141.404V302.025ZM147.504 307C147.504 305.933 147.204 305.1 146.604 304.5C146.021 303.883 145.296 303.575 144.429 303.575C143.579 303.575 142.854 303.883 142.254 304.5C141.671 305.117 141.379 305.958 141.379 307.025C141.379 308.092 141.671 308.933 142.254 309.55C142.854 310.167 143.579 310.475 144.429 310.475C145.279 310.475 146.004 310.167 146.604 309.55C147.204 308.917 147.504 308.067 147.504 307ZM157.372 302.375C157.872 301.608 158.497 301.008 159.247 300.575C159.997 300.125 160.83 299.9 161.747 299.9V304.425H160.572C159.505 304.425 158.705 304.658 158.172 305.125C157.639 305.575 157.372 306.375 157.372 307.525V314H153.097V300.05H157.372V302.375ZM175.94 306.8C175.94 307.2 175.915 307.617 175.865 308.05H166.19C166.257 308.917 166.532 309.583 167.015 310.05C167.515 310.5 168.124 310.725 168.84 310.725C169.907 310.725 170.649 310.275 171.065 309.375H175.615C175.382 310.292 174.957 311.117 174.34 311.85C173.74 312.583 172.982 313.158 172.065 313.575C171.149 313.992 170.124 314.2 168.99 314.2C167.624 314.2 166.407 313.908 165.34 313.325C164.274 312.742 163.44 311.908 162.84 310.825C162.24 309.742 161.94 308.475 161.94 307.025C161.94 305.575 162.232 304.308 162.815 303.225C163.415 302.142 164.249 301.308 165.315 300.725C166.382 300.142 167.607 299.85 168.99 299.85C170.34 299.85 171.54 300.133 172.59 300.7C173.64 301.267 174.457 302.075 175.04 303.125C175.64 304.175 175.94 305.4 175.94 306.8ZM171.565 305.675C171.565 304.942 171.315 304.358 170.815 303.925C170.315 303.492 169.69 303.275 168.94 303.275C168.224 303.275 167.615 303.483 167.115 303.9C166.632 304.317 166.332 304.908 166.215 305.675H171.565ZM168.94 296.95L165.065 299V296.05L168.94 294.075L172.815 296.05V299L168.94 296.95ZM194.996 299.9C196.729 299.9 198.104 300.425 199.121 301.475C200.154 302.525 200.671 303.983 200.671 305.85V314H196.421V306.425C196.421 305.525 196.179 304.833 195.696 304.35C195.229 303.85 194.579 303.6 193.746 303.6C192.912 303.6 192.254 303.85 191.771 304.35C191.304 304.833 191.071 305.525 191.071 306.425V314H186.821V306.425C186.821 305.525 186.579 304.833 186.096 304.35C185.629 303.85 184.979 303.6 184.146 303.6C183.312 303.6 182.654 303.85 182.171 304.35C181.704 304.833 181.471 305.525 181.471 306.425V314H177.196V300.05H181.471V301.8C181.904 301.217 182.471 300.758 183.171 300.425C183.871 300.075 184.662 299.9 185.546 299.9C186.596 299.9 187.529 300.125 188.346 300.575C189.179 301.025 189.829 301.667 190.296 302.5C190.779 301.733 191.437 301.108 192.271 300.625C193.104 300.142 194.012 299.9 194.996 299.9ZM204.81 298.6C204.06 298.6 203.444 298.383 202.96 297.95C202.494 297.5 202.26 296.95 202.26 296.3C202.26 295.633 202.494 295.083 202.96 294.65C203.444 294.2 204.06 293.975 204.81 293.975C205.544 293.975 206.144 294.2 206.61 294.65C207.094 295.083 207.335 295.633 207.335 296.3C207.335 296.95 207.094 297.5 206.61 297.95C206.144 298.383 205.544 298.6 204.81 298.6ZM206.935 300.05V314H202.66V300.05H206.935ZM215.383 314.2C214.017 314.2 212.783 313.908 211.683 313.325C210.6 312.742 209.742 311.908 209.108 310.825C208.492 309.742 208.183 308.475 208.183 307.025C208.183 305.592 208.5 304.333 209.133 303.25C209.767 302.15 210.633 301.308 211.733 300.725C212.833 300.142 214.067 299.85 215.433 299.85C216.8 299.85 218.033 300.142 219.133 300.725C220.233 301.308 221.1 302.15 221.733 303.25C222.367 304.333 222.683 305.592 222.683 307.025C222.683 308.458 222.358 309.725 221.708 310.825C221.075 311.908 220.2 312.742 219.083 313.325C217.983 313.908 216.75 314.2 215.383 314.2ZM215.383 310.5C216.2 310.5 216.892 310.2 217.458 309.6C218.042 309 218.333 308.142 218.333 307.025C218.333 305.908 218.05 305.05 217.483 304.45C216.933 303.85 216.25 303.55 215.433 303.55C214.6 303.55 213.908 303.85 213.358 304.45C212.808 305.033 212.533 305.892 212.533 307.025C212.533 308.142 212.8 309 213.333 309.6C213.883 310.2 214.567 310.5 215.383 310.5ZM229.626 314.2C228.41 314.2 227.326 313.992 226.376 313.575C225.426 313.158 224.676 312.592 224.126 311.875C223.576 311.142 223.268 310.325 223.201 309.425H227.426C227.476 309.908 227.701 310.3 228.101 310.6C228.501 310.9 228.993 311.05 229.576 311.05C230.11 311.05 230.518 310.95 230.801 310.75C231.101 310.533 231.251 310.258 231.251 309.925C231.251 309.525 231.043 309.233 230.626 309.05C230.21 308.85 229.535 308.633 228.601 308.4C227.601 308.167 226.768 307.925 226.101 307.675C225.435 307.408 224.86 307 224.376 306.45C223.893 305.883 223.651 305.125 223.651 304.175C223.651 303.375 223.868 302.65 224.301 302C224.751 301.333 225.401 300.808 226.251 300.425C227.118 300.042 228.143 299.85 229.326 299.85C231.076 299.85 232.451 300.283 233.451 301.15C234.468 302.017 235.051 303.167 235.201 304.6H231.251C231.185 304.117 230.968 303.733 230.601 303.45C230.251 303.167 229.785 303.025 229.201 303.025C228.701 303.025 228.318 303.125 228.051 303.325C227.785 303.508 227.651 303.767 227.651 304.1C227.651 304.5 227.86 304.8 228.276 305C228.71 305.2 229.376 305.4 230.276 305.6C231.31 305.867 232.151 306.133 232.801 306.4C233.451 306.65 234.018 307.067 234.501 307.65C235.001 308.217 235.26 308.983 235.276 309.95C235.276 310.767 235.043 311.5 234.576 312.15C234.126 312.783 233.468 313.283 232.601 313.65C231.751 314.017 230.76 314.2 229.626 314.2ZM71.4754 332.6C70.7254 332.6 70.1087 332.383 69.6254 331.95C69.1587 331.5 68.9254 330.95 68.9254 330.3C68.9254 329.633 69.1587 329.083 69.6254 328.65C70.1087 328.2 70.7254 327.975 71.4754 327.975C72.2087 327.975 72.8087 328.2 73.2754 328.65C73.7587 329.083 74.0004 329.633 74.0004 330.3C74.0004 330.95 73.7587 331.5 73.2754 331.95C72.8087 332.383 72.2087 332.6 71.4754 332.6ZM73.6004 334.05V348H69.3254V334.05H73.6004ZM84.1984 333.9C85.8318 333.9 87.1318 334.433 88.0984 335.5C89.0818 336.55 89.5734 338 89.5734 339.85V348H85.3234V340.425C85.3234 339.492 85.0818 338.767 84.5984 338.25C84.1151 337.733 83.4651 337.475 82.6484 337.475C81.8318 337.475 81.1818 337.733 80.6984 338.25C80.2151 338.767 79.9734 339.492 79.9734 340.425V348H75.6984V334.05H79.9734V335.9C80.4068 335.283 80.9901 334.8 81.7234 334.45C82.4568 334.083 83.2818 333.9 84.1984 333.9ZM90.6941 341.025C90.6941 339.575 90.9858 338.308 91.5691 337.225C92.1691 336.142 92.9941 335.308 94.0441 334.725C95.1108 334.142 96.3275 333.85 97.6941 333.85C99.4441 333.85 100.902 334.308 102.069 335.225C103.252 336.142 104.027 337.433 104.394 339.1H99.8441C99.4608 338.033 98.7191 337.5 97.6191 337.5C96.8358 337.5 96.2108 337.808 95.7441 338.425C95.2775 339.025 95.0441 339.892 95.0441 341.025C95.0441 342.158 95.2775 343.033 95.7441 343.65C96.2108 344.25 96.8358 344.55 97.6191 344.55C98.7191 344.55 99.4608 344.017 99.8441 342.95H104.394C104.027 344.583 103.252 345.867 102.069 346.8C100.886 347.733 99.4275 348.2 97.6941 348.2C96.3275 348.2 95.1108 347.908 94.0441 347.325C92.9941 346.742 92.1691 345.908 91.5691 344.825C90.9858 343.742 90.6941 342.475 90.6941 341.025ZM109.956 336.375C110.456 335.608 111.081 335.008 111.831 334.575C112.581 334.125 113.414 333.9 114.331 333.9V338.425H113.156C112.089 338.425 111.289 338.658 110.756 339.125C110.223 339.575 109.956 340.375 109.956 341.525V348H105.681V334.05H109.956V336.375ZM119.974 334.05V348H115.699V334.05H119.974ZM120.749 330.575L114.724 333.1V330.15L120.749 327.25V330.575ZM128.681 344L131.706 334.05H136.256L131.306 348H126.031L121.081 334.05H125.656L128.681 344ZM150.206 340.8C150.206 341.2 150.181 341.617 150.131 342.05H140.456C140.523 342.917 140.798 343.583 141.281 344.05C141.781 344.5 142.389 344.725 143.106 344.725C144.173 344.725 144.914 344.275 145.331 343.375H149.881C149.648 344.292 149.223 345.117 148.606 345.85C148.006 346.583 147.248 347.158 146.331 347.575C145.414 347.992 144.389 348.2 143.256 348.2C141.889 348.2 140.673 347.908 139.606 347.325C138.539 346.742 137.706 345.908 137.106 344.825C136.506 343.742 136.206 342.475 136.206 341.025C136.206 339.575 136.498 338.308 137.081 337.225C137.681 336.142 138.514 335.308 139.581 334.725C140.648 334.142 141.873 333.85 143.256 333.85C144.606 333.85 145.806 334.133 146.856 334.7C147.906 335.267 148.723 336.075 149.306 337.125C149.906 338.175 150.206 339.4 150.206 340.8ZM145.831 339.675C145.831 338.942 145.581 338.358 145.081 337.925C144.581 337.492 143.956 337.275 143.206 337.275C142.489 337.275 141.881 337.483 141.381 337.9C140.898 338.317 140.598 338.908 140.481 339.675H145.831ZM153.611 332.6C152.861 332.6 152.244 332.383 151.761 331.95C151.294 331.5 151.061 330.95 151.061 330.3C151.061 329.633 151.294 329.083 151.761 328.65C152.244 328.2 152.861 327.975 153.611 327.975C154.344 327.975 154.944 328.2 155.411 328.65C155.894 329.083 156.136 329.633 156.136 330.3C156.136 330.95 155.894 331.5 155.411 331.95C154.944 332.383 154.344 332.6 153.611 332.6ZM155.736 334.05V348H151.461V334.05H155.736ZM163.509 348.2C162.293 348.2 161.209 347.992 160.259 347.575C159.309 347.158 158.559 346.592 158.009 345.875C157.459 345.142 157.151 344.325 157.084 343.425H161.309C161.359 343.908 161.584 344.3 161.984 344.6C162.384 344.9 162.876 345.05 163.459 345.05C163.993 345.05 164.401 344.95 164.684 344.75C164.984 344.533 165.134 344.258 165.134 343.925C165.134 343.525 164.926 343.233 164.509 343.05C164.093 342.85 163.418 342.633 162.484 342.4C161.484 342.167 160.651 341.925 159.984 341.675C159.318 341.408 158.743 341 158.259 340.45C157.776 339.883 157.534 339.125 157.534 338.175C157.534 337.375 157.751 336.65 158.184 336C158.634 335.333 159.284 334.808 160.134 334.425C161.001 334.042 162.026 333.85 163.209 333.85C164.959 333.85 166.334 334.283 167.334 335.15C168.351 336.017 168.934 337.167 169.084 338.6H165.134C165.068 338.117 164.851 337.733 164.484 337.45C164.134 337.167 163.668 337.025 163.084 337.025C162.584 337.025 162.201 337.125 161.934 337.325C161.668 337.508 161.534 337.767 161.534 338.1C161.534 338.5 161.743 338.8 162.159 339C162.593 339.2 163.259 339.4 164.159 339.6C165.193 339.867 166.034 340.133 166.684 340.4C167.334 340.65 167.901 341.067 168.384 341.65C168.884 342.217 169.143 342.983 169.159 343.95C169.159 344.767 168.926 345.5 168.459 346.15C168.009 346.783 167.351 347.283 166.484 347.65C165.634 348.017 164.643 348.2 163.509 348.2Z" fill="white"/>
<path d="M126.356 462.25V470H119.456V462.25H102.856V457.25L120.206 435H126.356V456.6H130.656V462.25H126.356ZM110.606 456.6H119.456V445.3H119.356L110.606 456.5V456.6Z" fill="white"/>
</svg>
