<svg width="234" height="489" viewBox="0 0 234 489" fill="none" xmlns="http://www.w3.org/2000/svg">
<circle cx="116.5" cy="81.5" r="79" fill="#4A90E2" stroke="white" stroke-width="5"/>
<path d="M146.981 50.0791L75.0467 74.0638C74.7522 74.1617 74.4944 74.347 74.3077 74.5949C74.121 74.8429 74.0141 75.1418 74.0013 75.4519C73.9885 75.762 74.0704 76.0687 74.236 76.3312C74.4017 76.5937 74.6433 76.7996 74.9287 76.9215L101.364 88.2518C101.502 88.3118 101.654 88.3348 101.804 88.3188C101.954 88.3027 102.098 88.248 102.22 88.16L128.135 69.6417C128.939 69.0737 129.927 70.0612 129.359 70.8652L110.841 96.7812C110.755 96.9038 110.701 97.0466 110.686 97.1958C110.671 97.3451 110.694 97.4957 110.754 97.6333L122.079 124.069C122.201 124.355 122.406 124.597 122.669 124.763C122.931 124.929 123.237 125.011 123.547 124.999C123.858 124.986 124.157 124.88 124.405 124.694C124.653 124.507 124.839 124.25 124.937 123.956L148.921 52.0148C149.011 51.7452 149.024 51.4557 148.959 51.1789C148.894 50.9021 148.753 50.649 148.552 50.4479C148.351 50.2469 148.098 50.1058 147.821 50.0407C147.544 49.9755 147.251 49.9888 146.981 50.0791Z" fill="white"/>
<line x1="115.5" y1="214" x2="115.5" y2="162" stroke="white" stroke-width="3"/>
<line x1="115.5" y1="214" x2="115.5" y2="162" stroke="white" stroke-width="3"/>
<path d="M36.3886 258.9H29.8386L28.7886 262H24.3136L30.6636 244.45H35.6136L41.9636 262H37.4386L36.3886 258.9ZM35.2886 255.6L33.1136 249.175L30.9636 255.6H35.2886ZM51.469 243.5V262H47.194V243.5H51.469ZM59.9171 262.2C58.5504 262.2 57.3171 261.908 56.2171 261.325C55.1338 260.742 54.2754 259.908 53.6421 258.825C53.0254 257.742 52.7171 256.475 52.7171 255.025C52.7171 253.592 53.0338 252.333 53.6671 251.25C54.3004 250.15 55.1671 249.308 56.2671 248.725C57.3671 248.142 58.6004 247.85 59.9671 247.85C61.3338 247.85 62.5671 248.142 63.6671 248.725C64.7671 249.308 65.6338 250.15 66.2671 251.25C66.9004 252.333 67.2171 253.592 67.2171 255.025C67.2171 256.458 66.8921 257.725 66.2421 258.825C65.6088 259.908 64.7338 260.742 63.6171 261.325C62.5171 261.908 61.2838 262.2 59.9171 262.2ZM59.9171 258.5C60.7338 258.5 61.4254 258.2 61.9921 257.6C62.5754 257 62.8671 256.142 62.8671 255.025C62.8671 253.908 62.5838 253.05 62.0171 252.45C61.4671 251.85 60.7838 251.55 59.9671 251.55C59.1338 251.55 58.4421 251.85 57.8921 252.45C57.3421 253.033 57.0671 253.892 57.0671 255.025C57.0671 256.142 57.3338 257 57.8671 257.6C58.4171 258.2 59.1004 258.5 59.9171 258.5ZM70.6101 246.6C69.8601 246.6 69.2434 246.383 68.7601 245.95C68.2934 245.5 68.0601 244.95 68.0601 244.3C68.0601 243.633 68.2934 243.083 68.7601 242.65C69.2434 242.2 69.8601 241.975 70.6101 241.975C71.3434 241.975 71.9434 242.2 72.4101 242.65C72.8934 243.083 73.1351 243.633 73.1351 244.3C73.1351 244.95 72.8934 245.5 72.4101 245.95C71.9434 246.383 71.3434 246.6 70.6101 246.6ZM72.7601 263.8C72.7601 265.517 72.3267 266.75 71.4601 267.5C70.5934 268.267 69.3851 268.65 67.8351 268.65H66.1601V265.025H67.1851C67.6517 265.025 67.9851 264.933 68.1851 264.75C68.3851 264.567 68.4851 264.267 68.4851 263.85V248.05H72.7601V263.8ZM73.9837 255C73.9837 253.567 74.2504 252.308 74.7837 251.225C75.3337 250.142 76.0754 249.308 77.0087 248.725C77.942 248.142 78.9837 247.85 80.1337 247.85C81.117 247.85 81.9754 248.05 82.7087 248.45C83.4587 248.85 84.0337 249.375 84.4337 250.025V248.05H88.7087V262H84.4337V260.025C84.017 260.675 83.4337 261.2 82.6837 261.6C81.9504 262 81.092 262.2 80.1087 262.2C78.9754 262.2 77.942 261.908 77.0087 261.325C76.0754 260.725 75.3337 259.883 74.7837 258.8C74.2504 257.7 73.9837 256.433 73.9837 255ZM84.4337 255.025C84.4337 253.958 84.1337 253.117 83.5337 252.5C82.9504 251.883 82.2337 251.575 81.3837 251.575C80.5337 251.575 79.8087 251.883 79.2087 252.5C78.6254 253.1 78.3337 253.933 78.3337 255C78.3337 256.067 78.6254 256.917 79.2087 257.55C79.8087 258.167 80.5337 258.475 81.3837 258.475C82.2337 258.475 82.9504 258.167 83.5337 257.55C84.1337 256.933 84.4337 256.092 84.4337 255.025ZM97.2493 246.6C96.4993 246.6 95.8826 246.383 95.3993 245.95C94.9326 245.5 94.6993 244.95 94.6993 244.3C94.6993 243.633 94.9326 243.083 95.3993 242.65C95.8826 242.2 96.4993 241.975 97.2493 241.975C97.9826 241.975 98.5826 242.2 99.0493 242.65C99.5327 243.083 99.7743 243.633 99.7743 244.3C99.7743 244.95 99.5327 245.5 99.0493 245.95C98.5826 246.383 97.9826 246.6 97.2493 246.6ZM99.3743 248.05V262H95.0993V248.05H99.3743ZM109.972 247.9C111.606 247.9 112.906 248.433 113.872 249.5C114.856 250.55 115.347 252 115.347 253.85V262H111.097V254.425C111.097 253.492 110.856 252.767 110.372 252.25C109.889 251.733 109.239 251.475 108.422 251.475C107.606 251.475 106.956 251.733 106.472 252.25C105.989 252.767 105.747 253.492 105.747 254.425V262H101.472V248.05H105.747V249.9C106.181 249.283 106.764 248.8 107.497 248.45C108.231 248.083 109.056 247.9 109.972 247.9ZM124.318 251.6H122.018V262H117.743V251.6H116.193V248.05H117.743V247.65C117.743 245.933 118.235 244.633 119.218 243.75C120.201 242.85 121.643 242.4 123.543 242.4C123.86 242.4 124.093 242.408 124.243 242.425V246.05C123.426 246 122.851 246.117 122.518 246.4C122.185 246.683 122.018 247.192 122.018 247.925V248.05H124.318V251.6ZM131.677 262.2C130.31 262.2 129.077 261.908 127.977 261.325C126.894 260.742 126.035 259.908 125.402 258.825C124.785 257.742 124.477 256.475 124.477 255.025C124.477 253.592 124.794 252.333 125.427 251.25C126.06 250.15 126.927 249.308 128.027 248.725C129.127 248.142 130.36 247.85 131.727 247.85C133.094 247.85 134.327 248.142 135.427 248.725C136.527 249.308 137.394 250.15 138.027 251.25C138.66 252.333 138.977 253.592 138.977 255.025C138.977 256.458 138.652 257.725 138.002 258.825C137.369 259.908 136.494 260.742 135.377 261.325C134.277 261.908 133.044 262.2 131.677 262.2ZM131.677 258.5C132.494 258.5 133.185 258.2 133.752 257.6C134.335 257 134.627 256.142 134.627 255.025C134.627 253.908 134.344 253.05 133.777 252.45C133.227 251.85 132.544 251.55 131.727 251.55C130.894 251.55 130.202 251.85 129.652 252.45C129.102 253.033 128.827 253.892 128.827 255.025C128.827 256.142 129.094 257 129.627 257.6C130.177 258.2 130.86 258.5 131.677 258.5ZM144.52 250.375C145.02 249.608 145.645 249.008 146.395 248.575C147.145 248.125 147.978 247.9 148.895 247.9V252.425H147.72C146.653 252.425 145.853 252.658 145.32 253.125C144.786 253.575 144.52 254.375 144.52 255.525V262H140.245V248.05H144.52V250.375ZM167.738 247.9C169.472 247.9 170.847 248.425 171.863 249.475C172.897 250.525 173.413 251.983 173.413 253.85V262H169.163V254.425C169.163 253.525 168.922 252.833 168.438 252.35C167.972 251.85 167.322 251.6 166.488 251.6C165.655 251.6 164.997 251.85 164.513 252.35C164.047 252.833 163.813 253.525 163.813 254.425V262H159.563V254.425C159.563 253.525 159.322 252.833 158.838 252.35C158.372 251.85 157.722 251.6 156.888 251.6C156.055 251.6 155.397 251.85 154.913 252.35C154.447 252.833 154.213 253.525 154.213 254.425V262H149.938V248.05H154.213V249.8C154.647 249.217 155.213 248.758 155.913 248.425C156.613 248.075 157.405 247.9 158.288 247.9C159.338 247.9 160.272 248.125 161.088 248.575C161.922 249.025 162.572 249.667 163.038 250.5C163.522 249.733 164.18 249.108 165.013 248.625C165.847 248.142 166.755 247.9 167.738 247.9ZM174.553 255C174.553 253.567 174.82 252.308 175.353 251.225C175.903 250.142 176.645 249.308 177.578 248.725C178.511 248.142 179.553 247.85 180.703 247.85C181.686 247.85 182.545 248.05 183.278 248.45C184.028 248.85 184.603 249.375 185.003 250.025V248.05H189.278V262H185.003V260.025C184.586 260.675 184.003 261.2 183.253 261.6C182.52 262 181.661 262.2 180.678 262.2C179.545 262.2 178.511 261.908 177.578 261.325C176.645 260.725 175.903 259.883 175.353 258.8C174.82 257.7 174.553 256.433 174.553 255ZM185.003 255.025C185.003 253.958 184.703 253.117 184.103 252.5C183.52 251.883 182.803 251.575 181.953 251.575C181.103 251.575 180.378 251.883 179.778 252.5C179.195 253.1 178.903 253.933 178.903 255C178.903 256.067 179.195 256.917 179.778 257.55C180.378 258.167 181.103 258.475 181.953 258.475C182.803 258.475 183.52 258.167 184.103 257.55C184.703 256.933 185.003 256.092 185.003 255.025ZM194.819 255C194.819 253.567 195.085 252.308 195.619 251.225C196.169 250.142 196.91 249.308 197.844 248.725C198.777 248.142 199.819 247.85 200.969 247.85C201.952 247.85 202.81 248.05 203.544 248.45C204.294 248.85 204.869 249.375 205.269 250.025V248.05H209.544V262H205.269V260.025C204.852 260.675 204.269 261.2 203.519 261.6C202.785 262 201.927 262.2 200.944 262.2C199.81 262.2 198.777 261.908 197.844 261.325C196.91 260.725 196.169 259.883 195.619 258.8C195.085 257.7 194.819 256.433 194.819 255ZM205.269 255.025C205.269 253.958 204.969 253.117 204.369 252.5C203.785 251.883 203.069 251.575 202.219 251.575C201.369 251.575 200.644 251.883 200.044 252.5C199.46 253.1 199.169 253.933 199.169 255C199.169 256.067 199.46 256.917 200.044 257.55C200.644 258.167 201.369 258.475 202.219 258.475C203.069 258.475 203.785 258.167 204.369 257.55C204.969 256.933 205.269 256.092 205.269 255.025ZM20.6776 296.2C19.461 296.2 18.3776 295.992 17.4276 295.575C16.4776 295.158 15.7276 294.592 15.1776 293.875C14.6276 293.142 14.3193 292.325 14.2526 291.425H18.4776C18.5276 291.908 18.7526 292.3 19.1526 292.6C19.5526 292.9 20.0443 293.05 20.6276 293.05C21.161 293.05 21.5693 292.95 21.8526 292.75C22.1526 292.533 22.3026 292.258 22.3026 291.925C22.3026 291.525 22.0943 291.233 21.6776 291.05C21.261 290.85 20.586 290.633 19.6526 290.4C18.6526 290.167 17.8193 289.925 17.1526 289.675C16.486 289.408 15.911 289 15.4276 288.45C14.9443 287.883 14.7026 287.125 14.7026 286.175C14.7026 285.375 14.9193 284.65 15.3526 284C15.8026 283.333 16.4526 282.808 17.3026 282.425C18.1693 282.042 19.1943 281.85 20.3776 281.85C22.1276 281.85 23.5026 282.283 24.5026 283.15C25.5193 284.017 26.1026 285.167 26.2526 286.6H22.3026C22.236 286.117 22.0193 285.733 21.6526 285.45C21.3026 285.167 20.836 285.025 20.2526 285.025C19.7526 285.025 19.3693 285.125 19.1026 285.325C18.836 285.508 18.7026 285.767 18.7026 286.1C18.7026 286.5 18.911 286.8 19.3276 287C19.761 287.2 20.4276 287.4 21.3276 287.6C22.361 287.867 23.2026 288.133 23.8526 288.4C24.5026 288.65 25.0693 289.067 25.5526 289.65C26.0526 290.217 26.311 290.983 26.3276 291.95C26.3276 292.767 26.0943 293.5 25.6276 294.15C25.1776 294.783 24.5193 295.283 23.6526 295.65C22.8026 296.017 21.811 296.2 20.6776 296.2ZM41.7181 282.05V296H37.4431V294.1C37.0097 294.717 36.4181 295.217 35.6681 295.6C34.9347 295.967 34.1181 296.15 33.2181 296.15C32.1514 296.15 31.2097 295.917 30.3931 295.45C29.5764 294.967 28.9431 294.275 28.4931 293.375C28.0431 292.475 27.8181 291.417 27.8181 290.2V282.05H32.0681V289.625C32.0681 290.558 32.3097 291.283 32.7931 291.8C33.2764 292.317 33.9264 292.575 34.7431 292.575C35.5764 292.575 36.2347 292.317 36.7181 291.8C37.2014 291.283 37.4431 290.558 37.4431 289.625V282.05H41.7181ZM42.9388 289C42.9388 287.567 43.2054 286.308 43.7388 285.225C44.2888 284.142 45.0304 283.308 45.9638 282.725C46.8971 282.142 47.9388 281.85 49.0888 281.85C50.0721 281.85 50.9304 282.05 51.6638 282.45C52.4138 282.85 52.9888 283.375 53.3888 284.025V282.05H57.6638V296H53.3888V294.025C52.9721 294.675 52.3888 295.2 51.6388 295.6C50.9054 296 50.0471 296.2 49.0638 296.2C47.9304 296.2 46.8971 295.908 45.9638 295.325C45.0304 294.725 44.2888 293.883 43.7388 292.8C43.2054 291.7 42.9388 290.433 42.9388 289ZM53.3888 289.025C53.3888 287.958 53.0888 287.117 52.4888 286.5C51.9054 285.883 51.1888 285.575 50.3388 285.575C49.4888 285.575 48.7638 285.883 48.1638 286.5C47.5804 287.1 47.2888 287.933 47.2888 289C47.2888 290.067 47.5804 290.917 48.1638 291.55C48.7638 292.167 49.4888 292.475 50.3388 292.475C51.1888 292.475 51.9054 292.167 52.4888 291.55C53.0888 290.933 53.3888 290.092 53.3888 289.025ZM63.2044 289.025C63.2044 287.575 63.4961 286.308 64.0794 285.225C64.6794 284.142 65.5044 283.308 66.5544 282.725C67.6211 282.142 68.8377 281.85 70.2044 281.85C71.9544 281.85 73.4127 282.308 74.5794 283.225C75.7627 284.142 76.5377 285.433 76.9044 287.1H72.3544C71.9711 286.033 71.2294 285.5 70.1294 285.5C69.3461 285.5 68.7211 285.808 68.2544 286.425C67.7877 287.025 67.5544 287.892 67.5544 289.025C67.5544 290.158 67.7877 291.033 68.2544 291.65C68.7211 292.25 69.3461 292.55 70.1294 292.55C71.2294 292.55 71.9711 292.017 72.3544 290.95H76.9044C76.5377 292.583 75.7627 293.867 74.5794 294.8C73.3961 295.733 71.9377 296.2 70.2044 296.2C68.8377 296.2 67.6211 295.908 66.5544 295.325C65.5044 294.742 64.6794 293.908 64.0794 292.825C63.4961 291.742 63.2044 290.475 63.2044 289.025ZM84.5411 296.2C83.1744 296.2 81.9411 295.908 80.8411 295.325C79.7578 294.742 78.8994 293.908 78.2661 292.825C77.6494 291.742 77.3411 290.475 77.3411 289.025C77.3411 287.592 77.6578 286.333 78.2911 285.25C78.9244 284.15 79.7911 283.308 80.8911 282.725C81.9911 282.142 83.2244 281.85 84.5911 281.85C85.9578 281.85 87.1911 282.142 88.2911 282.725C89.3911 283.308 90.2578 284.15 90.8911 285.25C91.5244 286.333 91.8411 287.592 91.8411 289.025C91.8411 290.458 91.5161 291.725 90.8661 292.825C90.2328 293.908 89.3578 294.742 88.2411 295.325C87.1411 295.908 85.9078 296.2 84.5411 296.2ZM84.5411 292.5C85.3578 292.5 86.0494 292.2 86.6161 291.6C87.1994 291 87.4911 290.142 87.4911 289.025C87.4911 287.908 87.2078 287.05 86.6411 286.45C86.0911 285.85 85.4078 285.55 84.5911 285.55C83.7578 285.55 83.0661 285.85 82.5161 286.45C81.9661 287.033 81.6911 287.892 81.6911 289.025C81.6911 290.142 81.9578 291 82.4911 291.6C83.0411 292.2 83.7244 292.5 84.5411 292.5ZM110.909 281.9C112.642 281.9 114.017 282.425 115.034 283.475C116.067 284.525 116.584 285.983 116.584 287.85V296H112.334V288.425C112.334 287.525 112.092 286.833 111.609 286.35C111.142 285.85 110.492 285.6 109.659 285.6C108.826 285.6 108.167 285.85 107.684 286.35C107.217 286.833 106.984 287.525 106.984 288.425V296H102.734V288.425C102.734 287.525 102.492 286.833 102.009 286.35C101.542 285.85 100.892 285.6 100.059 285.6C99.2257 285.6 98.5674 285.85 98.0841 286.35C97.6174 286.833 97.3841 287.525 97.3841 288.425V296H93.1091V282.05H97.3841V283.8C97.8174 283.217 98.3841 282.758 99.0841 282.425C99.7841 282.075 100.576 281.9 101.459 281.9C102.509 281.9 103.442 282.125 104.259 282.575C105.092 283.025 105.742 283.667 106.209 284.5C106.692 283.733 107.351 283.108 108.184 282.625C109.017 282.142 109.926 281.9 110.909 281.9ZM122.849 284.025C123.266 283.375 123.841 282.85 124.574 282.45C125.307 282.05 126.166 281.85 127.149 281.85C128.299 281.85 129.341 282.142 130.274 282.725C131.207 283.308 131.941 284.142 132.474 285.225C133.024 286.308 133.299 287.567 133.299 289C133.299 290.433 133.024 291.7 132.474 292.8C131.941 293.883 131.207 294.725 130.274 295.325C129.341 295.908 128.299 296.2 127.149 296.2C126.182 296.2 125.324 296 124.574 295.6C123.841 295.2 123.266 294.683 122.849 294.05V302.65H118.574V282.05H122.849V284.025ZM128.949 289C128.949 287.933 128.649 287.1 128.049 286.5C127.466 285.883 126.741 285.575 125.874 285.575C125.024 285.575 124.299 285.883 123.699 286.5C123.116 287.117 122.824 287.958 122.824 289.025C122.824 290.092 123.116 290.933 123.699 291.55C124.299 292.167 125.024 292.475 125.874 292.475C126.724 292.475 127.449 292.167 128.049 291.55C128.649 290.917 128.949 290.067 128.949 289ZM138.817 284.375C139.317 283.608 139.942 283.008 140.692 282.575C141.442 282.125 142.275 281.9 143.192 281.9V286.425H142.017C140.95 286.425 140.15 286.658 139.617 287.125C139.083 287.575 138.817 288.375 138.817 289.525V296H134.542V282.05H138.817V284.375ZM143.385 289C143.385 287.567 143.652 286.308 144.185 285.225C144.735 284.142 145.477 283.308 146.41 282.725C147.343 282.142 148.385 281.85 149.535 281.85C150.518 281.85 151.377 282.05 152.11 282.45C152.86 282.85 153.435 283.375 153.835 284.025V282.05H158.11V296H153.835V294.025C153.418 294.675 152.835 295.2 152.085 295.6C151.352 296 150.493 296.2 149.51 296.2C148.377 296.2 147.343 295.908 146.41 295.325C145.477 294.725 144.735 293.883 144.185 292.8C143.652 291.7 143.385 290.433 143.385 289ZM153.835 289.025C153.835 287.958 153.535 287.117 152.935 286.5C152.352 285.883 151.635 285.575 150.785 285.575C149.935 285.575 149.21 285.883 148.61 286.5C148.027 287.1 147.735 287.933 147.735 289C147.735 290.067 148.027 290.917 148.61 291.55C149.21 292.167 149.935 292.475 150.785 292.475C151.635 292.475 152.352 292.167 152.935 291.55C153.535 290.933 153.835 290.092 153.835 289.025ZM168.776 284.025C169.192 283.375 169.767 282.85 170.501 282.45C171.234 282.05 172.092 281.85 173.076 281.85C174.226 281.85 175.267 282.142 176.201 282.725C177.134 283.308 177.867 284.142 178.401 285.225C178.951 286.308 179.226 287.567 179.226 289C179.226 290.433 178.951 291.7 178.401 292.8C177.867 293.883 177.134 294.725 176.201 295.325C175.267 295.908 174.226 296.2 173.076 296.2C172.109 296.2 171.251 296 170.501 295.6C169.767 295.2 169.192 294.683 168.776 294.05V302.65H164.501V282.05H168.776V284.025ZM174.876 289C174.876 287.933 174.576 287.1 173.976 286.5C173.392 285.883 172.667 285.575 171.801 285.575C170.951 285.575 170.226 285.883 169.626 286.5C169.042 287.117 168.751 287.958 168.751 289.025C168.751 290.092 169.042 290.933 169.626 291.55C170.226 292.167 170.951 292.475 171.801 292.475C172.651 292.475 173.376 292.167 173.976 291.55C174.576 290.917 174.876 290.067 174.876 289ZM179.618 289C179.618 287.567 179.885 286.308 180.418 285.225C180.968 284.142 181.71 283.308 182.643 282.725C183.577 282.142 184.618 281.85 185.768 281.85C186.752 281.85 187.61 282.05 188.343 282.45C189.093 282.85 189.668 283.375 190.068 284.025V282.05H194.343V296H190.068V294.025C189.652 294.675 189.068 295.2 188.318 295.6C187.585 296 186.727 296.2 185.743 296.2C184.61 296.2 183.577 295.908 182.643 295.325C181.71 294.725 180.968 293.883 180.418 292.8C179.885 291.7 179.618 290.433 179.618 289ZM190.068 289.025C190.068 287.958 189.768 287.117 189.168 286.5C188.585 285.883 187.868 285.575 187.018 285.575C186.168 285.575 185.443 285.883 184.843 286.5C184.26 287.1 183.968 287.933 183.968 289C183.968 290.067 184.26 290.917 184.843 291.55C185.443 292.167 186.168 292.475 187.018 292.475C187.868 292.475 188.585 292.167 189.168 291.55C189.768 290.933 190.068 290.092 190.068 289.025ZM200.711 284.375C201.211 283.608 201.836 283.008 202.586 282.575C203.336 282.125 204.17 281.9 205.086 281.9V286.425H203.911C202.845 286.425 202.045 286.658 201.511 287.125C200.978 287.575 200.711 288.375 200.711 289.525V296H196.436V282.05H200.711V284.375ZM205.28 289C205.28 287.567 205.546 286.308 206.08 285.225C206.63 284.142 207.371 283.308 208.305 282.725C209.238 282.142 210.28 281.85 211.43 281.85C212.413 281.85 213.271 282.05 214.005 282.45C214.755 282.85 215.33 283.375 215.73 284.025V282.05H220.005V296H215.73V294.025C215.313 294.675 214.73 295.2 213.98 295.6C213.246 296 212.388 296.2 211.405 296.2C210.271 296.2 209.238 295.908 208.305 295.325C207.371 294.725 206.63 293.883 206.08 292.8C205.546 291.7 205.28 290.433 205.28 289ZM215.73 289.025C215.73 287.958 215.43 287.117 214.83 286.5C214.246 285.883 213.53 285.575 212.68 285.575C211.83 285.575 211.105 285.883 210.505 286.5C209.921 287.1 209.63 287.933 209.63 289C209.63 290.067 209.921 290.917 210.505 291.55C211.105 292.167 211.83 292.475 212.68 292.475C213.53 292.475 214.246 292.167 214.83 291.55C215.43 290.933 215.73 290.092 215.73 289.025ZM31.952 323.025C31.952 321.575 32.2436 320.308 32.827 319.225C33.427 318.142 34.252 317.308 35.302 316.725C36.3686 316.142 37.5853 315.85 38.952 315.85C40.702 315.85 42.1603 316.308 43.327 317.225C44.5103 318.142 45.2853 319.433 45.652 321.1H41.102C40.7186 320.033 39.977 319.5 38.877 319.5C38.0936 319.5 37.4686 319.808 37.002 320.425C36.5353 321.025 36.302 321.892 36.302 323.025C36.302 324.158 36.5353 325.033 37.002 325.65C37.4686 326.25 38.0936 326.55 38.877 326.55C39.977 326.55 40.7186 326.017 41.102 324.95H45.652C45.2853 326.583 44.5103 327.867 43.327 328.8C42.1436 329.733 40.6853 330.2 38.952 330.2C37.5853 330.2 36.3686 329.908 35.302 329.325C34.252 328.742 33.427 327.908 32.827 326.825C32.2436 325.742 31.952 324.475 31.952 323.025ZM53.2887 330.2C51.922 330.2 50.6887 329.908 49.5887 329.325C48.5053 328.742 47.647 327.908 47.0137 326.825C46.397 325.742 46.0887 324.475 46.0887 323.025C46.0887 321.592 46.4053 320.333 47.0387 319.25C47.672 318.15 48.5387 317.308 49.6387 316.725C50.7387 316.142 51.972 315.85 53.3387 315.85C54.7053 315.85 55.9387 316.142 57.0387 316.725C58.1387 317.308 59.0053 318.15 59.6387 319.25C60.272 320.333 60.5887 321.592 60.5887 323.025C60.5887 324.458 60.2637 325.725 59.6137 326.825C58.9803 327.908 58.1053 328.742 56.9887 329.325C55.8887 329.908 54.6553 330.2 53.2887 330.2ZM53.2887 326.5C54.1053 326.5 54.797 326.2 55.3637 325.6C55.947 325 56.2387 324.142 56.2387 323.025C56.2387 321.908 55.9553 321.05 55.3887 320.45C54.8387 319.85 54.1553 319.55 53.3387 319.55C52.5053 319.55 51.8137 319.85 51.2637 320.45C50.7137 321.033 50.4387 321.892 50.4387 323.025C50.4387 324.142 50.7053 325 51.2387 325.6C51.7887 326.2 52.472 326.5 53.2887 326.5ZM79.6566 315.9C81.39 315.9 82.765 316.425 83.7816 317.475C84.815 318.525 85.3316 319.983 85.3316 321.85V330H81.0816V322.425C81.0816 321.525 80.84 320.833 80.3566 320.35C79.89 319.85 79.24 319.6 78.4066 319.6C77.5733 319.6 76.915 319.85 76.4316 320.35C75.965 320.833 75.7316 321.525 75.7316 322.425V330H71.4816V322.425C71.4816 321.525 71.24 320.833 70.7566 320.35C70.29 319.85 69.64 319.6 68.8066 319.6C67.9733 319.6 67.315 319.85 66.8316 320.35C66.365 320.833 66.1316 321.525 66.1316 322.425V330H61.8566V316.05H66.1316V317.8C66.565 317.217 67.1316 316.758 67.8316 316.425C68.5316 316.075 69.3233 315.9 70.2066 315.9C71.2566 315.9 72.19 316.125 73.0066 316.575C73.84 317.025 74.49 317.667 74.9566 318.5C75.44 317.733 76.0983 317.108 76.9316 316.625C77.765 316.142 78.6733 315.9 79.6566 315.9ZM91.5965 318.025C92.0132 317.375 92.5882 316.85 93.3215 316.45C94.0548 316.05 94.9132 315.85 95.8965 315.85C97.0465 315.85 98.0882 316.142 99.0215 316.725C99.9548 317.308 100.688 318.142 101.221 319.225C101.771 320.308 102.046 321.567 102.046 323C102.046 324.433 101.771 325.7 101.221 326.8C100.688 327.883 99.9548 328.725 99.0215 329.325C98.0882 329.908 97.0465 330.2 95.8965 330.2C94.9298 330.2 94.0715 330 93.3215 329.6C92.5882 329.2 92.0132 328.683 91.5965 328.05V336.65H87.3215V316.05H91.5965V318.025ZM97.6965 323C97.6965 321.933 97.3965 321.1 96.7965 320.5C96.2132 319.883 95.4882 319.575 94.6215 319.575C93.7715 319.575 93.0465 319.883 92.4465 320.5C91.8632 321.117 91.5715 321.958 91.5715 323.025C91.5715 324.092 91.8632 324.933 92.4465 325.55C93.0465 326.167 93.7715 326.475 94.6215 326.475C95.4715 326.475 96.1965 326.167 96.7965 325.55C97.3965 324.917 97.6965 324.067 97.6965 323ZM116.439 322.8C116.439 323.2 116.414 323.617 116.364 324.05H106.689C106.756 324.917 107.031 325.583 107.514 326.05C108.014 326.5 108.623 326.725 109.339 326.725C110.406 326.725 111.148 326.275 111.564 325.375H116.114C115.881 326.292 115.456 327.117 114.839 327.85C114.239 328.583 113.481 329.158 112.564 329.575C111.648 329.992 110.623 330.2 109.489 330.2C108.123 330.2 106.906 329.908 105.839 329.325C104.773 328.742 103.939 327.908 103.339 326.825C102.739 325.742 102.439 324.475 102.439 323.025C102.439 321.575 102.731 320.308 103.314 319.225C103.914 318.142 104.748 317.308 105.814 316.725C106.881 316.142 108.106 315.85 109.489 315.85C110.839 315.85 112.039 316.133 113.089 316.7C114.139 317.267 114.956 318.075 115.539 319.125C116.139 320.175 116.439 321.4 116.439 322.8ZM112.064 321.675C112.064 320.942 111.814 320.358 111.314 319.925C110.814 319.492 110.189 319.275 109.439 319.275C108.723 319.275 108.114 319.483 107.614 319.9C107.131 320.317 106.831 320.908 106.714 321.675H112.064ZM126.195 315.9C127.828 315.9 129.128 316.433 130.095 317.5C131.078 318.55 131.57 320 131.57 321.85V330H127.32V322.425C127.32 321.492 127.078 320.767 126.595 320.25C126.111 319.733 125.461 319.475 124.645 319.475C123.828 319.475 123.178 319.733 122.695 320.25C122.211 320.767 121.97 321.492 121.97 322.425V330H117.695V316.05H121.97V317.9C122.403 317.283 122.986 316.8 123.72 316.45C124.453 316.083 125.278 315.9 126.195 315.9ZM139.215 330.2C137.999 330.2 136.915 329.992 135.965 329.575C135.015 329.158 134.265 328.592 133.715 327.875C133.165 327.142 132.857 326.325 132.79 325.425H137.015C137.065 325.908 137.29 326.3 137.69 326.6C138.09 326.9 138.582 327.05 139.165 327.05C139.699 327.05 140.107 326.95 140.39 326.75C140.69 326.533 140.84 326.258 140.84 325.925C140.84 325.525 140.632 325.233 140.215 325.05C139.799 324.85 139.124 324.633 138.19 324.4C137.19 324.167 136.357 323.925 135.69 323.675C135.024 323.408 134.449 323 133.965 322.45C133.482 321.883 133.24 321.125 133.24 320.175C133.24 319.375 133.457 318.65 133.89 318C134.34 317.333 134.99 316.808 135.84 316.425C136.707 316.042 137.732 315.85 138.915 315.85C140.665 315.85 142.04 316.283 143.04 317.15C144.057 318.017 144.64 319.167 144.79 320.6H140.84C140.774 320.117 140.557 319.733 140.19 319.45C139.84 319.167 139.374 319.025 138.79 319.025C138.29 319.025 137.907 319.125 137.64 319.325C137.374 319.508 137.24 319.767 137.24 320.1C137.24 320.5 137.449 320.8 137.865 321C138.299 321.2 138.965 321.4 139.865 321.6C140.899 321.867 141.74 322.133 142.39 322.4C143.04 322.65 143.607 323.067 144.09 323.65C144.59 324.217 144.849 324.983 144.865 325.95C144.865 326.767 144.632 327.5 144.165 328.15C143.715 328.783 143.057 329.283 142.19 329.65C141.34 330.017 140.349 330.2 139.215 330.2ZM145.631 323C145.631 321.567 145.897 320.308 146.431 319.225C146.981 318.142 147.722 317.308 148.656 316.725C149.589 316.142 150.631 315.85 151.781 315.85C152.764 315.85 153.622 316.05 154.356 316.45C155.106 316.85 155.681 317.375 156.081 318.025V316.05H160.356V330H156.081V328.025C155.664 328.675 155.081 329.2 154.331 329.6C153.597 330 152.739 330.2 151.756 330.2C150.622 330.2 149.589 329.908 148.656 329.325C147.722 328.725 146.981 327.883 146.431 326.8C145.897 325.7 145.631 324.433 145.631 323ZM156.081 323.025C156.081 321.958 155.781 321.117 155.181 320.5C154.597 319.883 153.881 319.575 153.031 319.575C152.181 319.575 151.456 319.883 150.856 320.5C150.272 321.1 149.981 321.933 149.981 323C149.981 324.067 150.272 324.917 150.856 325.55C151.456 326.167 152.181 326.475 153.031 326.475C153.881 326.475 154.597 326.167 155.181 325.55C155.781 324.933 156.081 324.092 156.081 323.025ZM166.723 318.375C167.223 317.608 167.848 317.008 168.598 316.575C169.348 316.125 170.182 315.9 171.098 315.9V320.425H169.923C168.857 320.425 168.057 320.658 167.523 321.125C166.99 321.575 166.723 322.375 166.723 323.525V330H162.448V316.05H166.723V318.375ZM182.79 330.2C181.423 330.2 180.19 329.908 179.09 329.325C178.006 328.742 177.148 327.908 176.515 326.825C175.898 325.742 175.59 324.475 175.59 323.025C175.59 321.592 175.906 320.333 176.54 319.25C177.173 318.15 178.04 317.308 179.14 316.725C180.24 316.142 181.473 315.85 182.84 315.85C184.206 315.85 185.44 316.142 186.54 316.725C187.64 317.308 188.506 318.15 189.14 319.25C189.773 320.333 190.09 321.592 190.09 323.025C190.09 324.458 189.765 325.725 189.115 326.825C188.481 327.908 187.606 328.742 186.49 329.325C185.39 329.908 184.156 330.2 182.79 330.2ZM182.79 326.5C183.606 326.5 184.298 326.2 184.865 325.6C185.448 325 185.74 324.142 185.74 323.025C185.74 321.908 185.456 321.05 184.89 320.45C184.34 319.85 183.656 319.55 182.84 319.55C182.006 319.55 181.315 319.85 180.765 320.45C180.215 321.033 179.94 321.892 179.94 323.025C179.94 324.142 180.206 325 180.74 325.6C181.29 326.2 181.973 326.5 182.79 326.5ZM197.033 330.2C195.816 330.2 194.733 329.992 193.783 329.575C192.833 329.158 192.083 328.592 191.533 327.875C190.983 327.142 190.674 326.325 190.608 325.425H194.833C194.883 325.908 195.108 326.3 195.508 326.6C195.908 326.9 196.399 327.05 196.983 327.05C197.516 327.05 197.924 326.95 198.208 326.75C198.508 326.533 198.658 326.258 198.658 325.925C198.658 325.525 198.449 325.233 198.033 325.05C197.616 324.85 196.941 324.633 196.008 324.4C195.008 324.167 194.174 323.925 193.508 323.675C192.841 323.408 192.266 323 191.783 322.45C191.299 321.883 191.058 321.125 191.058 320.175C191.058 319.375 191.274 318.65 191.708 318C192.158 317.333 192.808 316.808 193.658 316.425C194.524 316.042 195.549 315.85 196.733 315.85C198.483 315.85 199.858 316.283 200.858 317.15C201.874 318.017 202.458 319.167 202.608 320.6H198.658C198.591 320.117 198.374 319.733 198.008 319.45C197.658 319.167 197.191 319.025 196.608 319.025C196.108 319.025 195.724 319.125 195.458 319.325C195.191 319.508 195.058 319.767 195.058 320.1C195.058 320.5 195.266 320.8 195.683 321C196.116 321.2 196.783 321.4 197.683 321.6C198.716 321.867 199.558 322.133 200.208 322.4C200.858 322.65 201.424 323.067 201.908 323.65C202.408 324.217 202.666 324.983 202.683 325.95C202.683 326.767 202.449 327.5 201.983 328.15C201.533 328.783 200.874 329.283 200.008 329.65C199.158 330.017 198.166 330.2 197.033 330.2ZM80.452 352.025C80.8686 351.375 81.4436 350.85 82.177 350.45C82.9103 350.05 83.7686 349.85 84.752 349.85C85.902 349.85 86.9436 350.142 87.877 350.725C88.8103 351.308 89.5436 352.142 90.077 353.225C90.627 354.308 90.902 355.567 90.902 357C90.902 358.433 90.627 359.7 90.077 360.8C89.5436 361.883 88.8103 362.725 87.877 363.325C86.9436 363.908 85.902 364.2 84.752 364.2C83.7853 364.2 82.927 364 82.177 363.6C81.4436 363.2 80.8686 362.683 80.452 362.05V370.65H76.177V350.05H80.452V352.025ZM86.552 357C86.552 355.933 86.252 355.1 85.652 354.5C85.0686 353.883 84.3436 353.575 83.477 353.575C82.627 353.575 81.902 353.883 81.302 354.5C80.7186 355.117 80.427 355.958 80.427 357.025C80.427 358.092 80.7186 358.933 81.302 359.55C81.902 360.167 82.627 360.475 83.477 360.475C84.327 360.475 85.052 360.167 85.652 359.55C86.252 358.917 86.552 358.067 86.552 357ZM98.4947 364.2C97.1281 364.2 95.8947 363.908 94.7947 363.325C93.7114 362.742 92.8531 361.908 92.2197 360.825C91.6031 359.742 91.2947 358.475 91.2947 357.025C91.2947 355.592 91.6114 354.333 92.2447 353.25C92.8781 352.15 93.7447 351.308 94.8447 350.725C95.9447 350.142 97.1781 349.85 98.5447 349.85C99.9114 349.85 101.145 350.142 102.245 350.725C103.345 351.308 104.211 352.15 104.845 353.25C105.478 354.333 105.795 355.592 105.795 357.025C105.795 358.458 105.47 359.725 104.82 360.825C104.186 361.908 103.311 362.742 102.195 363.325C101.095 363.908 99.8614 364.2 98.4947 364.2ZM98.4947 360.5C99.3114 360.5 100.003 360.2 100.57 359.6C101.153 359 101.445 358.142 101.445 357.025C101.445 355.908 101.161 355.05 100.595 354.45C100.045 353.85 99.3614 353.55 98.5447 353.55C97.7114 353.55 97.0197 353.85 96.4697 354.45C95.9197 355.033 95.6447 355.892 95.6447 357.025C95.6447 358.142 95.9114 359 96.4447 359.6C96.9947 360.2 97.6781 360.5 98.4947 360.5ZM115.563 349.9C117.196 349.9 118.496 350.433 119.463 351.5C120.446 352.55 120.938 354 120.938 355.85V364H116.688V356.425C116.688 355.492 116.446 354.767 115.963 354.25C115.479 353.733 114.829 353.475 114.013 353.475C113.196 353.475 112.546 353.733 112.063 354.25C111.579 354.767 111.338 355.492 111.338 356.425V364H107.063V350.05H111.338V351.9C111.771 351.283 112.354 350.8 113.088 350.45C113.821 350.083 114.646 349.9 115.563 349.9ZM130.683 360.375V364H128.508C126.958 364 125.75 363.625 124.883 362.875C124.017 362.108 123.583 360.867 123.583 359.15V353.6H121.883V350.05H123.583V346.65H127.858V350.05H130.658V353.6H127.858V359.2C127.858 359.617 127.958 359.917 128.158 360.1C128.358 360.283 128.692 360.375 129.158 360.375H130.683ZM138.415 364.2C137.048 364.2 135.815 363.908 134.715 363.325C133.631 362.742 132.773 361.908 132.14 360.825C131.523 359.742 131.215 358.475 131.215 357.025C131.215 355.592 131.531 354.333 132.165 353.25C132.798 352.15 133.665 351.308 134.765 350.725C135.865 350.142 137.098 349.85 138.465 349.85C139.831 349.85 141.065 350.142 142.165 350.725C143.265 351.308 144.131 352.15 144.765 353.25C145.398 354.333 145.715 355.592 145.715 357.025C145.715 358.458 145.39 359.725 144.74 360.825C144.106 361.908 143.231 362.742 142.115 363.325C141.015 363.908 139.781 364.2 138.415 364.2ZM138.415 360.5C139.231 360.5 139.923 360.2 140.49 359.6C141.073 359 141.365 358.142 141.365 357.025C141.365 355.908 141.081 355.05 140.515 354.45C139.965 353.85 139.281 353.55 138.465 353.55C137.631 353.55 136.94 353.85 136.39 354.45C135.84 355.033 135.565 355.892 135.565 357.025C135.565 358.142 135.831 359 136.365 359.6C136.915 360.2 137.598 360.5 138.415 360.5ZM152.658 364.2C151.441 364.2 150.358 363.992 149.408 363.575C148.458 363.158 147.708 362.592 147.158 361.875C146.608 361.142 146.299 360.325 146.233 359.425H150.458C150.508 359.908 150.733 360.3 151.133 360.6C151.533 360.9 152.024 361.05 152.608 361.05C153.141 361.05 153.549 360.95 153.833 360.75C154.133 360.533 154.283 360.258 154.283 359.925C154.283 359.525 154.074 359.233 153.658 359.05C153.241 358.85 152.566 358.633 151.633 358.4C150.633 358.167 149.799 357.925 149.133 357.675C148.466 357.408 147.891 357 147.408 356.45C146.924 355.883 146.683 355.125 146.683 354.175C146.683 353.375 146.899 352.65 147.333 352C147.783 351.333 148.433 350.808 149.283 350.425C150.149 350.042 151.174 349.85 152.358 349.85C154.108 349.85 155.483 350.283 156.483 351.15C157.499 352.017 158.083 353.167 158.233 354.6H154.283C154.216 354.117 153.999 353.733 153.633 353.45C153.283 353.167 152.816 353.025 152.233 353.025C151.733 353.025 151.349 353.125 151.083 353.325C150.816 353.508 150.683 353.767 150.683 354.1C150.683 354.5 150.891 354.8 151.308 355C151.741 355.2 152.408 355.4 153.308 355.6C154.341 355.867 155.183 356.133 155.833 356.4C156.483 356.65 157.049 357.067 157.533 357.65C158.033 358.217 158.291 358.983 158.308 359.95C158.308 360.767 158.074 361.5 157.608 362.15C157.158 362.783 156.499 363.283 155.633 363.65C154.783 364.017 153.791 364.2 152.658 364.2Z" fill="white"/>
<path d="M112.259 483H128.759V489H105.259V472.55L111.059 469.2H121.759V460H112.259V464.5H105.259V457.35L111.059 454H122.959L128.759 457.35V471.85L122.959 475.2H112.259V483Z" fill="white"/>
<line x1="115.5" y1="434" x2="115.5" y2="390" stroke="white" stroke-width="3"/>
</svg>
